SplineFontDB: 3.2
FontName: Paleo
FullName: Paleo
FamilyName: Paleo
Weight: Book
Copyright: Copyright (c) 2020, flavi
Version: 001.000
ItalicAngle: 0
UnderlinePosition: -152
UnderlineWidth: 51
Ascent: 819
Descent: 205
InvalidEm: 0
sfntRevision: 0x00010000
LayerCount: 2
Layer: 0 1 "Back" 1
Layer: 1 1 "Fore" 0
XUID: [1021 477 -754992045 14792]
StyleMap: 0x0000
FSType: 0
OS2Version: 4
OS2_WeightWidthSlopeOnly: 0
OS2_UseTypoMetrics: 1
CreationTime: 1589405284
ModificationTime: 1631313278
PfmFamily: 17
TTFWeight: 400
TTFWidth: 5
LineGap: 92
VLineGap: 0
Panose: 2 0 5 9 0 0 0 0 0 0
OS2TypoAscent: 819
OS2TypoAOffset: 0
OS2TypoDescent: -205
OS2TypoDOffset: 0
OS2TypoLinegap: 92
OS2WinAscent: 833
OS2WinAOffset: 0
OS2WinDescent: 210
OS2WinDOffset: 0
HheadAscent: 833
HheadAOffset: 0
HheadDescent: -210
HheadDOffset: 0
OS2SubXSize: 666
OS2SubYSize: 716
OS2SubXOff: 0
OS2SubYOff: 143
OS2SupXSize: 666
OS2SupYSize: 716
OS2SupXOff: 0
OS2SupYOff: 490
OS2StrikeYSize: 50
OS2StrikeYPos: 264
OS2CapHeight: 800
OS2Vendor: 'PfEd'
OS2CodePages: 00000001.00000000
OS2UnicodeRanges: 00000001.00000000.00000000.00000000
MarkAttachClasses: 1
DEI: 91125
ShortTable: cvt  2
  33
  633
EndShort
ShortTable: maxp 16
  1
  0
  127
  1131
  76
  0
  0
  2
  0
  1
  1
  0
  64
  46
  0
  0
EndShort
LangName: 1033 "" "" "Regular" "FontForge 2.0 : Paleo : 15-5-2020"
GaspTable: 1 65535 2 0
Encoding: UnicodeBmp
UnicodeInterp: none
NameList: AGL For New Fonts
DisplaySize: -96
AntiAlias: 0
FitToEm: 0
WinInfo: 0 20 8
BeginChars: 65539 65

StartChar: .notdef
Encoding: 65536 -1 0
Width: 1024
Flags: W
LayerCount: 2
Fore
SplineSet
34 0 m 1,0,-1
 34 682 l 1,1,-1
 305 682 l 1,2,-1
 305 0 l 1,3,-1
 34 0 l 1,0,-1
68 34 m 1,4,-1
 271 34 l 1,5,-1
 271 648 l 1,6,-1
 68 648 l 1,7,-1
 68 34 l 1,4,-1
EndSplineSet
EndChar

StartChar: exclamdown
Encoding: 161 161 3
Width: 1024
GlyphClass: 2
Flags: W
LayerCount: 2
Fore
SplineSet
18 -100 m 0,0,1
 18 -53 18 -53 63 -27 c 0,2,3
 89 -13 89 -13 119 -13 c 0,4,5
 177 -13 177 -13 206 -56 c 0,6,7
 220 -77 220 -77 220 -100 c 0,8,9
 220 -147 220 -147 175 -172 c 0,10,11
 149 -187 149 -187 119 -187 c 0,12,13
 61 -187 61 -187 32 -144 c 0,14,15
 18 -123 18 -123 18 -100 c 0,0,1
0 -100 m 0,16,17
 0 -156 0 -156 52 -187 c 0,18,19
 83 -204 83 -204 119 -205 c 0,20,21
 182 -205 182 -205 218 -158 c 0,22,23
 238 -131 238 -131 238 -100 c 0,24,25
 238 -44 238 -44 186 -13 c 0,26,27
 155 5 155 5 119 5 c 0,28,29
 55 5 55 5 20 -41 c 0,30,31
 0 -68 0 -68 0 -100 c 0,16,17
175 -14 m 1,32,-1
 189 -26 l 1,33,-1
 912 808 l 1,34,-1
 899 819 l 1,35,-1
 175 -14 l 1,32,-1
EndSplineSet
EndChar

StartChar: cent
Encoding: 162 162 4
Width: 1024
GlyphClass: 2
Flags: W
LayerCount: 2
Fore
SplineSet
0 767 m 0,0,1
 0 802 0 802 28 815 c 0,2,3
 37 819 37 819 45 819 c 0,4,5
 75 819 75 819 87 789 c 0,6,7
 91 778 91 778 91 767 c 0,8,9
 91 732 91 732 63 719 c 0,10,11
 54 715 54 715 45 715 c 0,12,13
 16 715 16 715 4 745 c 0,14,15
 0 756 0 756 0 767 c 0,0,1
197 767 m 0,16,17
 197 802 197 802 225 815 c 0,18,19
 234 819 234 819 242 819 c 0,20,21
 272 819 272 819 284 789 c 0,22,23
 288 778 288 778 288 767 c 0,24,25
 288 732 288 732 260 719 c 0,26,27
 251 715 251 715 242 715 c 0,28,29
 213 715 213 715 201 745 c 0,30,31
 197 756 197 756 197 767 c 0,16,17
393 767 m 0,32,33
 393 802 393 802 420 815 c 0,34,35
 429 819 429 819 438 819 c 0,36,37
 467 819 467 819 479 789 c 0,38,39
 483 778 483 778 483 767 c 0,40,41
 483 732 483 732 455 719 c 0,42,43
 446 715 446 715 438 715 c 0,44,45
 409 715 409 715 397 745 c 0,46,47
 393 756 393 756 393 767 c 0,32,33
598 767 m 0,48,49
 598 802 598 802 626 815 c 0,50,51
 635 819 635 819 644 819 c 0,52,53
 673 819 673 819 685 789 c 0,54,55
 689 778 689 778 689 767 c 0,56,57
 689 732 689 732 661 719 c 0,58,59
 652 715 652 715 644 715 c 0,60,61
 615 715 615 715 602 745 c 0,62,63
 599 756 599 756 598 767 c 0,48,49
780 767 m 0,64,65
 780 802 780 802 808 815 c 0,66,67
 817 819 817 819 825 819 c 0,68,69
 854 819 854 819 866 789 c 0,70,71
 870 778 870 778 870 767 c 0,72,73
 870 732 870 732 843 719 c 0,74,75
 834 715 834 715 825 715 c 0,76,77
 796 715 796 715 784 745 c 0,78,79
 780 756 780 756 780 767 c 0,64,65
933 767 m 0,80,81
 933 802 933 802 961 815 c 0,82,83
 970 819 970 819 979 819 c 0,84,85
 1008 819 1008 819 1020 789 c 0,86,87
 1024 778 1024 778 1024 767 c 0,88,89
 1024 732 1024 732 996 719 c 0,90,91
 987 715 987 715 979 715 c 0,92,93
 949 715 949 715 937 745 c 0,94,95
 933 756 933 756 933 767 c 0,80,81
0 348 m 0,96,97
 0 383 0 383 28 396 c 0,98,99
 37 400 37 400 45 401 c 0,100,101
 75 401 75 401 87 370 c 0,102,103
 91 359 91 359 91 348 c 0,104,105
 91 313 91 313 63 300 c 0,106,107
 54 296 54 296 45 296 c 0,108,109
 16 296 16 296 4 326 c 0,110,111
 0 337 0 337 0 348 c 0,96,97
197 348 m 0,112,113
 197 383 197 383 225 396 c 0,114,115
 234 400 234 400 242 401 c 0,116,117
 272 401 272 401 284 370 c 0,118,119
 288 359 288 359 288 348 c 0,120,121
 288 313 288 313 260 300 c 0,122,123
 251 296 251 296 242 296 c 0,124,125
 213 296 213 296 201 326 c 0,126,127
 197 337 197 337 197 348 c 0,112,113
393 348 m 0,128,129
 393 383 393 383 420 396 c 0,130,131
 429 400 429 400 438 401 c 0,132,133
 467 401 467 401 479 370 c 0,134,135
 483 359 483 359 483 348 c 0,136,137
 483 313 483 313 455 300 c 0,138,139
 446 296 446 296 438 296 c 0,140,141
 409 296 409 296 397 326 c 0,142,143
 393 337 393 337 393 348 c 0,128,129
598 348 m 0,144,145
 598 383 598 383 626 396 c 0,146,147
 635 400 635 400 644 401 c 0,148,149
 673 401 673 401 685 370 c 0,150,151
 689 359 689 359 689 348 c 0,152,153
 689 313 689 313 661 300 c 0,154,155
 652 296 652 296 644 296 c 0,156,157
 615 296 615 296 602 326 c 0,158,159
 599 337 599 337 598 348 c 0,144,145
780 348 m 0,160,161
 780 383 780 383 808 396 c 0,162,163
 817 400 817 400 825 401 c 0,164,165
 854 401 854 401 866 370 c 0,166,167
 870 359 870 359 870 348 c 0,168,169
 870 313 870 313 843 300 c 0,170,171
 834 296 834 296 825 296 c 0,172,173
 796 296 796 296 784 326 c 0,174,175
 780 337 780 337 780 348 c 0,160,161
933 348 m 0,176,177
 933 383 933 383 961 396 c 0,178,179
 970 400 970 400 979 401 c 0,180,181
 1008 401 1008 401 1020 370 c 0,182,183
 1024 359 1024 359 1024 348 c 0,184,185
 1024 313 1024 313 996 300 c 0,186,187
 987 296 987 296 979 296 c 0,188,189
 949 296 949 296 937 326 c 0,190,191
 933 337 933 337 933 348 c 0,176,177
131 545 m 0,192,193
 131 570 131 570 151 577 c 0,194,195
 155 578 155 578 159 578 c 0,196,197
 179 578 179 578 185 556 c 0,198,199
 187 550 187 550 187 545 c 0,200,201
 187 521 187 521 167 514 c 0,202,203
 162 512 162 512 159 512 c 0,204,205
 139 512 139 512 132 534 c 0,206,207
 131 540 131 540 131 545 c 0,192,193
253 545 m 0,208,209
 253 570 253 570 273 577 c 0,210,211
 277 578 277 578 281 578 c 0,212,213
 301 578 301 578 307 556 c 0,214,215
 309 550 309 550 309 545 c 0,216,217
 309 521 309 521 289 514 c 0,218,219
 284 512 284 512 281 512 c 0,220,221
 261 512 261 512 255 534 c 0,222,223
 253 540 253 540 253 545 c 0,208,209
375 545 m 0,224,225
 375 570 375 570 395 577 c 0,226,227
 399 578 399 578 403 578 c 0,228,229
 423 578 423 578 429 556 c 0,230,231
 431 550 431 550 431 545 c 0,232,233
 431 521 431 521 411 514 c 0,234,235
 407 512 407 512 403 512 c 0,236,237
 383 512 383 512 377 534 c 0,238,239
 375 540 375 540 375 545 c 0,224,225
502 545 m 0,240,241
 502 570 502 570 522 577 c 0,242,243
 527 578 527 578 530 578 c 0,244,245
 550 578 550 578 557 556 c 0,246,247
 558 550 558 550 558 545 c 0,248,249
 558 521 558 521 538 514 c 0,250,251
 534 512 534 512 530 512 c 0,252,253
 511 512 511 512 504 534 c 0,254,255
 503 540 503 540 502 545 c 0,240,241
614 545 m 0,256,257
 614 570 614 570 634 577 c 0,258,259
 638 578 638 578 642 578 c 0,260,261
 662 578 662 578 668 556 c 0,262,263
 670 550 670 550 670 545 c 0,264,265
 670 521 670 521 650 514 c 0,266,267
 646 512 646 512 642 512 c 0,268,269
 622 512 622 512 616 534 c 0,270,271
 614 540 614 540 614 545 c 0,256,257
762 545 m 0,272,273
 762 570 762 570 782 577 c 0,274,275
 787 578 787 578 790 578 c 0,276,277
 810 578 810 578 817 556 c 0,278,279
 818 550 818 550 818 545 c 0,280,281
 818 521 818 521 798 514 c 0,282,283
 794 512 794 512 790 512 c 0,284,285
 770 512 770 512 764 534 c 0,286,287
 762 540 762 540 762 545 c 0,272,273
914 545 m 0,288,289
 914 570 914 570 934 577 c 0,290,291
 938 578 938 578 942 578 c 0,292,293
 962 578 962 578 968 556 c 0,294,295
 970 550 970 550 970 545 c 0,296,297
 970 521 970 521 950 514 c 0,298,299
 946 512 946 512 942 512 c 0,300,301
 922 512 922 512 916 534 c 0,302,303
 914 540 914 540 914 545 c 0,288,289
EndSplineSet
EndChar

StartChar: sterling
Encoding: 163 163 5
Width: 1024
GlyphClass: 2
Flags: W
LayerCount: 2
Fore
SplineSet
520 819 m 1,0,-1
 1024 315 l 1,1,-1
 554 -128 l 1,2,-1
 532 -149 l 1,3,-1
 0 328 l 1,4,-1
 520 819 l 1,0,-1
518 730 m 1,5,-1
 94 329 l 1,6,-1
 531 -62 l 1,7,-1
 932 316 l 1,8,-1
 518 730 l 1,5,-1
611 275 m 1,9,-1
 699 247 l 1,10,11
 679 173 679 173 632 137 c 0,12,13
 584 101 584 101 512 101 c 0,14,15
 422 101 422 101 364 163 c 0,16,17
 306 224 306 224 306 331 c 0,18,19
 306 443 306 443 365 505 c 0,20,21
 423 568 423 568 517 568 c 0,22,23
 600 568 600 568 652 519 c 0,24,25
 683 490 683 490 698 436 c 1,26,-1
 608 414 l 1,27,28
 600 449 600 449 574 470 c 0,29,30
 549 490 549 490 513 490 c 0,31,32
 463 490 463 490 431 454 c 0,33,34
 400 418 400 418 400 337 c 0,35,36
 400 252 400 252 431 215.5 c 128,-1,37
 462 179 462 179 511 179 c 0,38,39
 547 179 547 179 573.5 202 c 128,-1,40
 600 225 600 225 611 275 c 1,9,-1
EndSplineSet
EndChar

StartChar: currency
Encoding: 164 164 6
Width: 1024
GlyphClass: 2
Flags: W
LayerCount: 2
Fore
SplineSet
950 452 m 1,0,-1
 74 452 l 1,1,-1
 74 745 l 1,2,-1
 950 745 l 1,3,-1
 950 452 l 1,0,-1
0 379 m 1,4,-1
 1024 379 l 1,5,-1
 1024 819 l 1,6,-1
 0 819 l 1,7,-1
 0 379 l 1,4,-1
181 651 m 1,8,-1
 181 577 l 1,9,-1
 458 577 l 1,10,-1
 458 651 l 1,11,-1
 181 651 l 1,8,-1
581 651 m 1,12,-1
 581 577 l 1,13,-1
 850 577 l 1,14,-1
 850 651 l 1,15,-1
 581 651 l 1,12,-1
EndSplineSet
EndChar

StartChar: yen
Encoding: 165 165 7
Width: 1024
GlyphClass: 2
Flags: W
LayerCount: 2
Fore
SplineSet
905 314 m 0,0,1
 905 163 905 163 801 52 c 0,2,3
 698 -58 698 -58 547 -71 c 0,4,5
 529 -73 529 -73 512 -73 c 0,6,7
 356 -73 356 -73 243 32 c 0,8,9
 133 134 133 134 120 281 c 0,10,11
 119 298 119 298 119 314 c 0,12,13
 119 464 119 464 223 575 c 0,14,15
 326 685 326 685 477 698 c 0,16,17
 495 700 495 700 512 700 c 0,18,19
 668 700 668 700 781 595 c 0,20,21
 891 493 891 493 904 346 c 0,22,23
 905 330 905 330 905 314 c 0,0,1
1024 314 m 0,24,25
 1024 500 1024 500 901 642 c 0,26,27
 784 777 784 777 608 810 c 0,28,29
 560 818 560 818 512 819 c 0,30,31
 323 819 323 819 180 698 c 0,32,33
 43 583 43 583 9 410 c 0,34,35
 0 362 0 362 0 314 c 0,36,37
 0 127 0 127 123 -15 c 0,38,39
 240 -149 240 -149 416 -182 c 0,40,41
 464 -191 464 -191 512 -191 c 0,42,43
 724 -191 724 -191 874 -43.5 c 128,-1,44
 1024 104 1024 104 1024 314 c 0,24,25
626 271 m 1,45,-1
 708 245 l 1,46,47
 689 176 689 176 645 143 c 256,48,49
 601 110 601 110 534 110 c 0,50,51
 450 110 450 110 397 167 c 0,52,53
 343 224 343 224 343 323 c 0,54,55
 343 427 343 427 397 485 c 256,56,57
 451 543 451 543 539 543 c 0,58,59
 616 543 616 543 664 498 c 0,60,61
 693 471 693 471 707 420 c 1,62,-1
 623 400 l 1,63,64
 616 433 616 433 592 452 c 256,65,66
 568 471 568 471 535 471 c 0,67,68
 488 471 488 471 459 437 c 0,69,70
 430 404 430 404 430 329 c 0,71,72
 430 250 430 250 458.5 216 c 128,-1,73
 487 182 487 182 533 182 c 0,74,75
 567 182 567 182 591 203.5 c 128,-1,76
 615 225 615 225 626 271 c 1,45,-1
EndSplineSet
EndChar

StartChar: brokenbar
Encoding: 166 166 8
Width: 1024
GlyphClass: 2
Flags: W
LayerCount: 2
Fore
SplineSet
905 315 m 0,0,1
 905 164 905 164 801 53 c 0,2,3
 698 -57 698 -57 547 -70 c 0,4,5
 529 -72 529 -72 512 -72 c 0,6,7
 356 -72 356 -72 243 33 c 0,8,9
 133 135 133 135 120 282 c 0,10,11
 119 299 119 299 119 315 c 0,12,13
 119 466 119 466 223 577 c 0,14,15
 326 686 326 686 477 700 c 0,16,17
 495 701 495 701 512 701 c 0,18,19
 668 701 668 701 781 596 c 0,20,21
 891 495 891 495 904 348 c 0,22,23
 905 331 905 331 905 315 c 0,0,1
1024 315 m 0,24,25
 1024 502 1024 502 901 643 c 0,26,27
 784 778 784 778 608 811 c 0,28,29
 560 820 560 820 512 820 c 0,30,31
 323 820 323 820 180 699 c 0,32,33
 43 584 43 584 9 411 c 0,34,35
 0 363 0 363 0 315 c 0,36,37
 0 128 0 128 123 -14 c 0,38,39
 240 -148 240 -148 416 -181 c 0,40,41
 464 -190 464 -190 512 -190 c 0,42,43
 724 -190 724 -190 874 -42 c 128,-1,44
 1024 106 1024 106 1024 315 c 0,24,25
358 561 m 1,45,-1
 512 561 l 2,46,47
 564 561 564 561 592 553 c 0,48,49
 629 542 629 542 655 514 c 128,-1,50
 681 486 681 486 695 446 c 256,51,52
 709 406 709 406 709 347 c 0,53,54
 709 296 709 296 696 258 c 0,55,56
 680 212 680 212 651 184 c 0,57,58
 629 163 629 163 592 151 c 0,59,60
 564 142 564 142 517 142 c 2,61,-1
 358 142 l 1,62,-1
 358 561 l 1,45,-1
442 490 m 1,63,-1
 442 212 l 1,64,-1
 505 212 l 2,65,66
 541 212 541 212 556 216 c 0,67,68
 577 222 577 222 590 234 c 0,69,70
 604 246 604 246 613 274 c 0,71,72
 621 302 621 302 621 351 c 128,-1,73
 621 400 621 400 612.5 426 c 128,-1,74
 604 452 604 452 588.5 466.5 c 128,-1,75
 573 481 573 481 550 486 c 0,76,77
 532 490 532 490 480 490 c 2,78,-1
 442 490 l 1,63,-1
EndSplineSet
EndChar

StartChar: section
Encoding: 167 167 9
Width: 1024
GlyphClass: 2
Flags: W
LayerCount: 2
Fore
SplineSet
905 314 m 0,0,1
 905 163 905 163 801 52 c 0,2,3
 698 -58 698 -58 547 -71 c 0,4,5
 529 -73 529 -73 512 -73 c 0,6,7
 356 -73 356 -73 243 32 c 0,8,9
 133 134 133 134 120 281 c 0,10,11
 119 298 119 298 119 314 c 0,12,13
 119 464 119 464 223 575 c 0,14,15
 326 685 326 685 477 698 c 0,16,17
 495 700 495 700 512 700 c 0,18,19
 668 700 668 700 781 595 c 0,20,21
 891 493 891 493 904 346 c 0,22,23
 905 330 905 330 905 314 c 0,0,1
1024 314 m 0,24,25
 1024 500 1024 500 901 642 c 0,26,27
 784 777 784 777 608 810 c 0,28,29
 560 818 560 818 512 819 c 0,30,31
 323 819 323 819 180 698 c 0,32,33
 43 583 43 583 9 410 c 0,34,35
 0 362 0 362 0 314 c 0,36,37
 0 127 0 127 123 -15 c 0,38,39
 240 -149 240 -149 416 -182 c 0,40,41
 464 -191 464 -191 512 -191 c 0,42,43
 724 -191 724 -191 874 -43.5 c 128,-1,44
 1024 104 1024 104 1024 314 c 0,24,25
309 103 m 1,45,-1
 309 522 l 1,46,-1
 436 522 l 1,47,-1
 512 236 l 1,48,-1
 587 522 l 1,49,-1
 714 522 l 1,50,-1
 714 103 l 1,51,-1
 635 103 l 1,52,-1
 635 432 l 1,53,-1
 552 103 l 1,54,-1
 471 103 l 1,55,-1
 388 432 l 1,56,-1
 388 103 l 1,57,-1
 309 103 l 1,45,-1
EndSplineSet
EndChar

StartChar: dieresis
Encoding: 168 168 10
Width: 1024
GlyphClass: 2
Flags: W
LayerCount: 2
Fore
SplineSet
905 315 m 0,0,1
 905 164 905 164 801 53 c 0,2,3
 698 -57 698 -57 547 -70 c 0,4,5
 529 -72 529 -72 512 -72 c 0,6,7
 356 -72 356 -72 243 33 c 0,8,9
 133 135 133 135 120 282 c 0,10,11
 119 299 119 299 119 315 c 0,12,13
 119 465 119 465 223 576 c 0,14,15
 326 686 326 686 477 699 c 0,16,17
 495 701 495 701 512 701 c 0,18,19
 668 701 668 701 781 596 c 0,20,21
 891 494 891 494 904 347 c 0,22,23
 905 330 905 330 905 315 c 0,0,1
1024 315 m 0,24,25
 1024 501 1024 501 901 643 c 0,26,27
 784 778 784 778 608 811 c 0,28,29
 560 819 560 819 512 819 c 0,30,31
 323 819 323 819 180 699 c 0,32,33
 43 583 43 583 9 411 c 0,34,35
 0 363 0 363 0 315 c 0,36,37
 0 128 0 128 123 -14 c 0,38,39
 240 -149 240 -149 416 -181 c 0,40,41
 464 -190 464 -190 512 -190 c 0,42,43
 724 -190 724 -190 874 -42.5 c 128,-1,44
 1024 105 1024 105 1024 315 c 0,24,25
358 99 m 1,45,-1
 358 518 l 1,46,-1
 646 518 l 1,47,-1
 646 447 l 1,48,-1
 443 447 l 1,49,-1
 443 348 l 1,50,-1
 618 348 l 1,51,-1
 618 277 l 1,52,-1
 443 277 l 1,53,-1
 443 99 l 1,54,-1
 358 99 l 1,45,-1
EndSplineSet
EndChar

StartChar: copyright
Encoding: 169 169 11
Width: 1024
GlyphClass: 2
Flags: W
LayerCount: 2
Fore
SplineSet
905 315 m 0,0,1
 905 164 905 164 801 53 c 0,2,3
 698 -57 698 -57 547 -70 c 0,4,5
 529 -71 529 -71 512 -71 c 0,6,7
 356 -71 356 -71 243 34 c 0,8,9
 133 135 133 135 120 282 c 0,10,11
 119 299 119 299 119 315 c 0,12,13
 119 466 119 466 223 577 c 0,14,15
 326 687 326 687 477 700 c 0,16,17
 495 701 495 701 512 701 c 0,18,19
 668 701 668 701 781 597 c 0,20,21
 891 495 891 495 904 348 c 0,22,23
 905 331 905 331 905 315 c 0,0,1
1024 315 m 0,24,25
 1024 502 1024 502 901 643 c 0,26,27
 784 778 784 778 608 811 c 0,28,29
 560 820 560 820 512 820 c 0,30,31
 323 820 323 820 180 699 c 0,32,33
 43 584 43 584 9 411 c 0,34,35
 0 363 0 363 0 315 c 0,36,37
 0 128 0 128 123 -13 c 0,38,39
 240 -148 240 -148 416 -181 c 0,40,41
 464 -190 464 -190 512 -190 c 0,42,43
 701 -190 701 -190 844 -69 c 0,44,45
 981 46 981 46 1015 219 c 0,46,47
 1024 267 1024 267 1024 315 c 0,24,25
405 104 m 1,48,-1
 405 523 l 1,49,-1
 541 523 l 2,50,51
 618 523 618 523 642 517 c 0,52,53
 678 507 678 507 702 476 c 0,54,55
 726 444 726 444 726 394 c 0,56,57
 726 356 726 356 712 329.5 c 128,-1,58
 698 303 698 303 676 288 c 0,59,60
 655 273 655 273 633 268 c 0,61,62
 602 262 602 262 545 262 c 2,63,-1
 490 262 l 1,64,-1
 490 104 l 1,65,-1
 405 104 l 1,48,-1
490 452 m 1,66,-1
 490 333 l 1,67,-1
 536 333 l 2,68,69
 586 333 586 333 603 339.5 c 128,-1,70
 620 346 620 346 629 360 c 0,71,72
 639 374 639 374 639 393 c 0,73,74
 639 416 639 416 625.5 431 c 128,-1,75
 612 446 612 446 592 449 c 0,76,77
 576 452 576 452 531 452 c 2,78,-1
 490 452 l 1,66,-1
EndSplineSet
EndChar

StartChar: ordfeminine
Encoding: 170 170 12
Width: 1024
GlyphClass: 2
Flags: W
LayerCount: 2
Fore
SplineSet
905 314 m 0,0,1
 905 163 905 163 801 52 c 0,2,3
 698 -58 698 -58 547 -71 c 0,4,5
 529 -72 529 -72 512 -72 c 0,6,7
 356 -72 356 -72 243 32 c 0,8,9
 133 134 133 134 120 281 c 0,10,11
 119 298 119 298 119 314 c 0,12,13
 119 465 119 465 223 576 c 0,14,15
 326 686 326 686 477 699 c 0,16,17
 495 700 495 700 512 700 c 0,18,19
 668 700 668 700 781 595 c 0,20,21
 891 494 891 494 904 347 c 0,22,23
 905 330 905 330 905 314 c 0,0,1
1024 314 m 0,24,25
 1024 501 1024 501 901 642 c 0,26,27
 784 777 784 777 608 810 c 0,28,29
 560 819 560 819 512 819 c 0,30,31
 323 819 323 819 180 698 c 0,32,33
 43 583 43 583 9 410 c 0,34,35
 0 362 0 362 0 314 c 0,36,37
 0 127 0 127 123 -14 c 0,38,39
 240 -149 240 -149 416 -182 c 0,40,41
 464 -191 464 -191 512 -191 c 0,42,43
 724 -191 724 -191 874 -43 c 128,-1,44
 1024 105 1024 105 1024 314 c 0,24,25
353 239 m 1,45,-1
 435 247 l 1,46,47
 443 206 443 206 465 186 c 0,48,49
 488 167 488 167 527 167 c 0,50,51
 568 167 568 167 588 184 c 0,52,53
 609 202 609 202 609 225 c 0,54,55
 609 240 609 240 600 250 c 0,56,57
 592 260 592 260 570 268 c 0,58,59
 555 273 555 273 502 286 c 0,60,61
 434 303 434 303 407 328 c 0,62,63
 368 362 368 362 368 412 c 0,64,65
 368 444 368 444 386 472 c 256,66,67
 404 500 404 500 438 514 c 0,68,69
 473 529 473 529 521 529 c 0,70,71
 600 529 600 529 640 494 c 0,72,73
 680 460 680 460 682 402 c 1,74,-1
 597 398 l 1,75,76
 592 431 592 431 574 445 c 256,77,78
 556 459 556 459 520 459 c 0,79,80
 483 459 483 459 462 444 c 0,81,82
 449 434 449 434 449 418 c 0,83,84
 449 403 449 403 462 392 c 0,85,86
 478 379 478 379 539.5 364.5 c 128,-1,87
 601 350 601 350 631 334 c 0,88,89
 660 319 660 319 677 292 c 256,90,91
 694 265 694 265 694 225 c 0,92,93
 694 189 694 189 674 157.5 c 128,-1,94
 654 126 654 126 617 111 c 0,95,96
 581 95 581 95 526 95 c 0,97,98
 446 95 446 95 404 132 c 0,99,100
 361 169 361 169 353 239 c 1,45,-1
EndSplineSet
EndChar

StartChar: guillemotleft
Encoding: 171 171 13
Width: 1024
GlyphClass: 2
Flags: W
LayerCount: 2
Fore
SplineSet
0 247 m 1,0,-1
 78 209 l 1,1,-1
 262 591 l 1,2,-1
 498 29 l 1,3,-1
 749 609 l 1,4,-1
 946 195 l 1,5,-1
 1024 233 l 1,6,-1
 745 819 l 1,7,-1
 499 250 l 1,8,-1
 267 802 l 1,9,-1
 0 247 l 1,0,-1
105 219 m 1,10,-1
 181 177 l 1,11,-1
 252 305 l 1,12,-1
 303 184 l 1,13,-1
 383 217 l 1,14,-1
 263 505 l 1,15,-1
 105 219 l 1,10,-1
600 219 m 1,16,-1
 676 177 l 1,17,-1
 747 305 l 1,18,-1
 797 184 l 1,19,-1
 877 217 l 1,20,-1
 758 505 l 1,21,-1
 600 219 l 1,16,-1
500 567 m 1,22,-1
 429 695 l 1,23,-1
 353 653 l 1,24,-1
 511 368 l 1,25,-1
 631 656 l 1,26,-1
 551 689 l 1,27,-1
 500 567 l 1,22,-1
EndSplineSet
EndChar

StartChar: logicalnot
Encoding: 172 172 14
Width: 1024
GlyphClass: 2
Flags: W
LayerCount: 2
Fore
SplineSet
242 525 m 1,0,-1
 242 813 l 1,1,-1
 300 813 l 1,2,-1
 300 700 l 1,3,-1
 414 700 l 1,4,-1
 414 813 l 1,5,-1
 473 813 l 1,6,-1
 473 525 l 1,7,-1
 414 525 l 1,8,-1
 414 651 l 1,9,-1
 300 651 l 1,10,-1
 300 525 l 1,11,-1
 242 525 l 1,0,-1
667 631 m 1,12,-1
 667 679 l 1,13,-1
 793 679 l 1,14,-1
 793 564 l 1,15,16
 775 547 775 547 740 533.5 c 128,-1,17
 705 520 705 520 670 520 c 0,18,19
 624 520 624 520 590.5 539 c 128,-1,20
 557 558 557 558 540 593 c 128,-1,21
 523 628 523 628 523 670 c 0,22,23
 523 715 523 715 542 750 c 128,-1,24
 561 785 561 785 597 804 c 0,25,26
 625 818 625 818 666 818 c 0,27,28
 720 818 720 818 750.5 795.5 c 128,-1,29
 781 773 781 773 789 733 c 1,30,-1
 731 722 l 1,31,32
 725 744 725 744 708.5 756 c 128,-1,33
 692 768 692 768 666 768 c 0,34,35
 628 768 628 768 605.5 744 c 128,-1,36
 583 720 583 720 583 672 c 0,37,38
 583 621 583 621 606 595 c 128,-1,39
 629 569 629 569 666 569 c 0,40,41
 684 569 684 569 702.5 576.5 c 128,-1,42
 721 584 721 584 734 594 c 1,43,-1
 734 631 l 1,44,-1
 667 631 l 1,12,-1
0 709 m 1,45,-1
 0 627 l 1,46,-1
 171 627 l 1,47,-1
 171 709 l 1,48,-1
 0 709 l 1,45,-1
851 709 m 1,49,-1
 851 627 l 1,50,-1
 1024 627 l 1,51,-1
 1024 709 l 1,52,-1
 851 709 l 1,49,-1
EndSplineSet
EndChar

StartChar: registered
Encoding: 174 174 15
Width: 1024
GlyphClass: 2
Flags: W
LayerCount: 2
Fore
SplineSet
0 406 m 1,0,-1
 31 391 l 1,1,-1
 176 704 l 1,2,-1
 176 703 l 1,3,-1
 177 702 l 1,4,-1
 177 701 l 1,5,-1
 178 700 l 1,6,-1
 178 699 l 1,7,-1
 179 698 l 1,8,-1
 179 697 l 1,9,-1
 179 696 l 1,10,-1
 180 695 l 1,11,-1
 180 694 l 1,12,-1
 181 693 l 1,13,-1
 181 692 l 1,14,-1
 182 691 l 1,15,-1
 182 690 l 1,16,-1
 183 689 l 1,17,-1
 183 688 l 1,18,-1
 184 687 l 1,19,-1
 184 686 l 1,20,-1
 184 685 l 1,21,-1
 185 684 l 1,22,-1
 185 683 l 1,23,-1
 186 682 l 1,24,-1
 186 681 l 1,25,-1
 187 680 l 1,26,-1
 187 679 l 1,27,-1
 188 678 l 1,28,-1
 188 677 l 1,29,-1
 189 676 l 1,30,-1
 189 675 l 1,31,-1
 189 674 l 1,32,-1
 190 673 l 1,33,-1
 190 672 l 1,34,-1
 191 671 l 1,35,-1
 191 670 l 1,36,-1
 192 669 l 1,37,-1
 192 668 l 1,38,-1
 193 667 l 1,39,-1
 193 666 l 1,40,-1
 194 665 l 1,41,-1
 194 664 l 1,42,-1
 194 663 l 1,43,-1
 195 662 l 1,44,-1
 195 661 l 1,45,-1
 196 659 l 1,46,-1
 197 658 l 1,47,-1
 197 657 l 1,48,-1
 197 656 l 1,49,-1
 198 655 l 1,50,-1
 198 654 l 1,51,-1
 199 653 l 1,52,-1
 199 652 l 1,53,-1
 200 651 l 1,54,-1
 200 650 l 1,55,-1
 201 649 l 1,56,-1
 201 648 l 1,57,-1
 202 647 l 1,58,-1
 202 646 l 1,59,-1
 202 645 l 1,60,-1
 203 644 l 1,61,-1
 203 643 l 1,62,-1
 204 642 l 1,63,-1
 204 641 l 1,64,-1
 205 640 l 1,65,-1
 205 639 l 1,66,-1
 206 638 l 1,67,-1
 206 637 l 1,68,-1
 207 636 l 1,69,-1
 207 635 l 1,70,-1
 207 634 l 1,71,-1
 208 633 l 1,72,-1
 208 632 l 1,73,-1
 209 631 l 1,74,-1
 209 630 l 1,75,-1
 210 629 l 1,76,-1
 210 628 l 1,77,-1
 211 627 l 1,78,-1
 211 626 l 1,79,-1
 212 625 l 1,80,-1
 212 624 l 1,81,-1
 212 623 l 1,82,-1
 213 622 l 1,83,-1
 213 621 l 1,84,-1
 214 620 l 1,85,-1
 214 619 l 1,86,-1
 215 618 l 1,87,-1
 215 617 l 1,88,-1
 216 616 l 1,89,-1
 216 615 l 1,90,-1
 217 616 l 1,91,-1
 217 617 l 1,92,-1
 218 618 l 1,93,-1
 218 619 l 1,94,-1
 219 620 l 1,95,-1
 219 621 l 1,96,-1
 220 622 l 1,97,-1
 220 623 l 1,98,-1
 221 624 l 1,99,-1
 221 625 l 1,100,-1
 222 626 l 1,101,-1
 222 627 l 1,102,-1
 223 628 l 1,103,-1
 223 629 l 1,104,-1
 224 630 l 1,105,-1
 224 631 l 1,106,-1
 225 632 l 1,107,-1
 225 633 l 1,108,-1
 226 634 l 1,109,-1
 226 635 l 1,110,-1
 227 636 l 1,111,-1
 227 637 l 1,112,-1
 228 638 l 1,113,-1
 228 639 l 1,114,-1
 229 640 l 1,115,-1
 229 641 l 1,116,-1
 230 642 l 1,117,-1
 230 643 l 1,118,-1
 231 644 l 1,119,-1
 231 645 l 1,120,-1
 232 646 l 1,121,-1
 232 647 l 1,122,-1
 233 648 l 1,123,-1
 233 649 l 1,124,-1
 234 650 l 1,125,-1
 234 651 l 1,126,-1
 235 652 l 1,127,-1
 235 653 l 1,128,-1
 236 654 l 1,129,-1
 236 655 l 1,130,-1
 237 656 l 1,131,-1
 237 657 l 1,132,-1
 238 658 l 1,133,-1
 238 659 l 1,134,-1
 239 660 l 1,135,-1
 239 661 l 1,136,-1
 240 662 l 1,137,-1
 240 663 l 1,138,-1
 241 664 l 1,139,-1
 241 665 l 1,140,-1
 242 666 l 1,141,-1
 242 667 l 1,142,-1
 243 668 l 1,143,-1
 243 669 l 1,144,-1
 244 670 l 1,145,-1
 244 671 l 1,146,-1
 245 672 l 1,147,-1
 245 673 l 1,148,-1
 246 674 l 1,149,-1
 246 675 l 1,150,-1
 247 676 l 1,151,-1
 247 677 l 1,152,-1
 248 678 l 1,153,-1
 248 679 l 1,154,-1
 249 680 l 1,155,-1
 249 681 l 1,156,-1
 250 682 l 1,157,-1
 250 683 l 1,158,-1
 251 684 l 1,159,-1
 251 685 l 1,160,-1
 251 686 l 1,161,-1
 252 687 l 1,162,-1
 252 688 l 1,163,-1
 253 689 l 1,164,-1
 253 690 l 1,165,-1
 254 691 l 1,166,-1
 254 692 l 1,167,-1
 255 693 l 1,168,-1
 255 694 l 1,169,-1
 256 695 l 1,170,-1
 256 696 l 1,171,-1
 257 697 l 1,172,-1
 257 698 l 1,173,-1
 258 699 l 1,174,-1
 258 700 l 1,175,-1
 259 701 l 1,176,-1
 295 571 l 1,177,-1
 337 694 l 1,178,-1
 368 558 l 1,179,-1
 430 693 l 1,180,-1
 546 195 l 1,181,-1
 579 194 l 1,182,-1
 605 292 l 1,183,-1
 627 121 l 1,184,-1
 696 276 l 1,185,-1
 724 130 l 1,186,-1
 807 298 l 1,187,-1
 830 167 l 1,188,-1
 864 165 l 1,189,-1
 1024 738 l 1,190,-1
 991 747 l 1,191,-1
 851 246 l 1,192,-1
 822 406 l 1,193,-1
 738 236 l 1,194,-1
 708 390 l 1,195,-1
 645 246 l 1,196,-1
 627 383 l 1,197,-1
 594 385 l 1,198,-1
 563 270 l 1,199,-1
 440 798 l 1,200,-1
 379 664 l 1,201,-1
 344 819 l 1,202,-1
 298 687 l 1,203,-1
 268 797 l 1,204,-1
 218 695 l 1,205,-1
 217 696 l 1,206,-1
 217 697 l 1,207,-1
 216 698 l 1,208,-1
 216 699 l 1,209,-1
 215 700 l 1,210,-1
 215 701 l 1,211,-1
 214 702 l 1,212,-1
 214 703 l 1,213,-1
 214 704 l 1,214,-1
 213 705 l 1,215,-1
 213 706 l 1,216,-1
 212 707 l 1,217,-1
 212 708 l 1,218,-1
 211 709 l 1,219,-1
 211 710 l 1,220,-1
 210 711 l 1,221,-1
 210 712 l 1,222,-1
 209 713 l 1,223,-1
 209 714 l 1,224,-1
 209 715 l 1,225,-1
 208 716 l 1,226,-1
 208 717 l 1,227,-1
 207 718 l 1,228,-1
 207 719 l 1,229,-1
 206 720 l 1,230,-1
 206 721 l 1,231,-1
 205 722 l 1,232,-1
 205 723 l 1,233,-1
 204 724 l 1,234,-1
 204 725 l 1,235,-1
 204 726 l 1,236,-1
 203 727 l 1,237,-1
 203 728 l 1,238,-1
 202 729 l 1,239,-1
 202 730 l 1,240,-1
 201 731 l 1,241,-1
 201 732 l 1,242,-1
 200 733 l 1,243,-1
 200 734 l 1,244,-1
 199 735 l 1,245,-1
 199 736 l 1,246,-1
 199 737 l 1,247,-1
 198 738 l 1,248,-1
 198 739 l 1,249,-1
 197 740 l 1,250,-1
 197 741 l 1,251,-1
 196 742 l 1,252,-1
 196 743 l 1,253,-1
 195 744 l 1,254,-1
 195 745 l 1,255,-1
 194 746 l 1,256,-1
 194 747 l 1,257,-1
 194 748 l 1,258,-1
 193 749 l 1,259,-1
 193 750 l 1,260,-1
 192 751 l 1,261,-1
 192 752 l 1,262,-1
 191 753 l 1,263,-1
 191 754 l 1,264,-1
 190 755 l 1,265,-1
 190 756 l 1,266,-1
 189 757 l 1,267,-1
 189 758 l 1,268,-1
 188 759 l 1,269,-1
 188 760 l 1,270,-1
 188 761 l 1,271,-1
 187 762 l 1,272,-1
 187 763 l 1,273,-1
 186 764 l 1,274,-1
 186 765 l 1,275,-1
 185 766 l 1,276,-1
 185 767 l 1,277,-1
 184 768 l 1,278,-1
 184 769 l 1,279,-1
 183 770 l 1,280,-1
 183 771 l 1,281,-1
 183 772 l 1,282,-1
 182 773 l 1,283,-1
 182 774 l 1,284,-1
 181 775 l 1,285,-1
 181 776 l 1,286,-1
 180 777 l 1,287,-1
 180 778 l 1,288,-1
 179 779 l 1,289,-1
 179 780 l 1,290,-1
 178 781 l 1,291,-1
 178 782 l 1,292,-1
 178 783 l 1,293,-1
 177 784 l 1,294,-1
 177 785 l 1,295,-1
 176 786 l 1,296,-1
 0 406 l 1,0,-1
EndSplineSet
EndChar

StartChar: macron
Encoding: 175 175 16
Width: 1024
GlyphClass: 2
Flags: W
LayerCount: 2
Fore
SplineSet
50 819 m 1,0,1
 91 735 91 735 119 688 c 0,2,3
 137 660 137 660 157 634 c 1,4,-1
 158 634 l 1,5,6
 183 607 183 607 198 604 c 0,7,8
 225 601 225 601 263 622 c 0,9,10
 265 624 265 624 266 624 c 0,11,12
 302 647 302 647 327 683 c 0,13,14
 337 698 337 698 362 746 c 0,15,16
 382 787 382 787 382 788 c 0,17,18
 385 798 385 798 387 814 c 1,19,-1
 442 807 l 1,20,21
 439 784 439 784 434 769 c 0,22,23
 432 763 432 763 412 722 c 1,24,-1
 412 721 l 1,25,-1
 411 720 l 1,26,27
 384 670 384 670 372 651 c 0,28,29
 340 605 340 605 295 577 c 0,30,31
 266 559 266 559 235 552 c 1,32,33
 237 551 237 551 238 549 c 0,34,35
 288 552 288 552 310 559 c 1,36,-1
 310 559 l 1,37,38
 343 569 343 569 379 599 c 0,39,40
 405 620 405 620 437 656 c 0,41,42
 461 685 461 685 470 697 c 1,43,-1
 470 698 l 1,44,45
 484 719 484 719 495 743 c 0,46,47
 514 783 514 783 514 783 c 2,48,49
 518 795 518 795 522 814 c 1,50,-1
 576 803 l 1,51,52
 571 778 571 778 566 765 c 0,53,54
 565 760 565 760 545 719 c 0,55,56
 532 690 532 690 515 667 c 0,57,58
 504 649 504 649 478 620 c 0,59,60
 442 579 442 579 414 556 c 0,61,62
 375 525 375 525 338 510 c 1,63,64
 370 514 370 514 391 520 c 0,65,66
 437 533 437 533 482 564 c 0,67,68
 515 587 515 587 547 626 c 1,69,-1
 547 627 l 1,70,71
 577 662 577 662 601 700 c 1,72,-1
 601 701 l 1,73,74
 613 720 613 720 630 762 c 0,75,76
 639 789 639 789 643 807 c 1,77,-1
 698 796 l 1,78,79
 692 771 692 771 682 743 c 1,80,-1
 682 742 l 1,81,-1
 682 741 l 1,82,83
 662 694 662 694 647 671 c 0,84,85
 621 628 621 628 589 591 c 0,86,87
 550 545 550 545 513 518 c 0,88,89
 500 510 500 510 487 502 c 1,90,91
 550 529 550 529 579 544 c 1,92,-1
 580 544 l 1,93,94
 627 568 627 568 663 600 c 1,95,-1
 663 601 l 1,96,97
 700 632 700 632 729 663 c 0,98,99
 751 686 751 686 778 721 c 0,100,101
 796 745 796 745 806 766 c 0,102,103
 810 775 810 775 810 787 c 1,104,-1
 865 787 l 1,105,106
 864 762 864 762 857 744 c 1,107,-1
 857 743 l 1,108,-1
 856 742 l 1,109,110
 843 716 843 716 822 688 c 0,111,112
 792 649 792 649 769 625 c 0,113,114
 738 593 738 593 700 559 c 0,115,116
 657 521 657 521 605 495 c 1,117,-1
 604 494 l 1,118,119
 604 494 604 494 604 494 c 1,120,-1
 605 494 l 1,121,-1
 606 495 l 1,122,-1
 606 495 l 1,123,124
 654 509 654 509 722 552 c 0,125,126
 778 586 778 586 837 638 c 0,127,128
 891 686 891 686 932 734 c 0,129,130
 949 755 949 755 977 801 c 1,131,-1
 1024 772 l 1,132,133
 993 722 993 722 974 699 c 0,134,135
 930 647 930 647 873 597 c 0,136,137
 809 541 809 541 751 505 c 0,138,139
 677 459 677 459 623 442 c 1,140,-1
 622 442 l 1,141,142
 573 427 573 427 492 422 c 1,143,-1
 491 422 l 2,144,145
 415 420 415 420 369 426 c 1,146,-1
 368 426 l 1,147,148
 313 435 313 435 265 462 c 0,149,150
 215 492 215 492 164 543 c 256,151,152
 113 594 113 594 72 659 c 1,153,-1
 72 659 l 1,154,155
 43 707 43 707 0 795 c 1,156,-1
 50 819 l 1,0,1
EndSplineSet
EndChar

StartChar: degree
Encoding: 176 176 17
Width: 1024
GlyphClass: 2
Flags: W
LayerCount: 2
Fore
SplineSet
1004 819 m 1,0,-1
 1024 760 l 1,1,-1
 816 689 l 1,2,-1
 1007 398 l 1,3,-1
 955 364 l 1,4,-1
 756 669 l 1,5,-1
 537 594 l 1,6,-1
 703 346 l 1,7,-1
 651 312 l 1,8,-1
 477 573 l 1,9,-1
 231 489 l 1,10,-1
 374 323 l 1,11,-1
 328 283 l 1,12,-1
 168 468 l 1,13,-1
 20 417 l 1,14,-1
 0 475 l 1,15,-1
 1004 819 l 1,0,-1
EndSplineSet
EndChar

StartChar: plusminus
Encoding: 177 177 18
Width: 1024
GlyphClass: 2
Flags: W
LayerCount: 2
Fore
SplineSet
165 819 m 1,0,-1
 216 791 l 1,1,2
 195 753 195 753 153 678 c 0,3,4
 130 638 130 638 120 619 c 1,5,-1
 291 619 l 1,6,7
 308 650 308 650 342 711 c 0,8,9
 383 783 383 783 402 819 c 1,10,-1
 454 791 l 1,11,12
 433 753 433 753 391 678 c 0,13,14
 368 638 368 638 358 619 c 1,15,-1
 528 619 l 1,16,17
 545 650 545 650 579 711 c 0,18,19
 620 783 620 783 639 819 c 1,20,-1
 690 791 l 1,21,22
 669 753 669 753 627 678 c 0,23,24
 605 638 605 638 594 619 c 1,25,-1
 804 619 l 1,26,27
 821 650 821 650 856 711 c 0,28,29
 896 783 896 783 916 819 c 1,30,-1
 967 791 l 1,31,32
 946 754 946 754 905 680 c 0,33,34
 882 639 882 639 871 619 c 1,35,-1
 1024 619 l 1,36,-1
 1024 560 l 1,37,-1
 869 560 l 1,38,39
 881 538 881 538 905 495 c 0,40,41
 947 421 947 421 967 384 c 1,42,-1
 916 356 l 1,43,44
 896 392 896 392 856 464 c 0,45,46
 820 528 820 528 802 560 c 1,47,-1
 597 560 l 1,48,49
 609 539 609 539 633 496 c 0,50,51
 675 422 675 422 695 384 c 1,52,-1
 644 356 l 1,53,54
 624 392 624 392 584 464 c 0,55,56
 548 528 548 528 530 560 c 1,57,-1
 359 560 l 1,58,59
 371 539 371 539 395 496 c 0,60,61
 437 422 437 422 457 384 c 1,62,-1
 406 356 l 1,63,64
 386 392 386 392 346 464 c 0,65,66
 310 528 310 528 292 560 c 1,67,-1
 118 560 l 1,68,69
 129 539 129 539 153 496 c 0,70,71
 195 421 195 421 216 384 c 1,72,-1
 165 356 l 1,73,74
 145 392 145 392 105 464 c 0,75,76
 68 528 68 528 51 560 c 1,77,-1
 0 560 l 1,78,-1
 0 619 l 1,79,-1
 53 619 l 1,80,81
 70 650 70 650 104 711 c 0,82,83
 145 783 145 783 165 819 c 1,0,-1
EndSplineSet
EndChar

StartChar: uni00B2
Encoding: 178 178 19
Width: 1024
GlyphClass: 2
Flags: W
LayerCount: 2
Fore
SplineSet
528 818 m 0,0,1
 539 818 539 818 548 818 c 0,2,3
 619 814 619 814 691 779 c 0,4,5
 767 744 767 744 830 690 c 0,6,7
 890 639 890 639 937 568 c 0,8,9
 977 508 977 508 1024 419 c 1,10,-1
 976 393 l 1,11,12
 929 481 929 481 891 538 c 0,13,14
 886 545 886 545 876 559 c 1,15,16
 832 521 832 521 804 499 c 0,17,18
 758 463 758 463 711 435 c 0,19,20
 663 406 663 406 608 397 c 1,21,-1
 607 397 l 1,22,23
 524 387 524 387 444 401 c 0,24,25
 355 417 355 417 280 466 c 0,26,27
 234 495 234 495 166 558 c 0,28,29
 165 557 165 557 162 554 c 0,30,31
 159 549 159 549 157 547 c 0,32,33
 116 494 116 494 45 391 c 1,34,-1
 0 422 l 1,35,36
 73 527 73 527 114 580 c 0,37,38
 182 668 182 668 235 710 c 0,39,40
 304 764 304 764 385 793 c 0,41,42
 460 818 460 818 528 818 c 0,0,1
545 763 m 0,43,44
 478 766 478 766 403 741 c 0,45,46
 346 721 346 721 295 686 c 1,47,48
 351 638 351 638 393 618 c 1,49,-1
 393 618 l 1,50,51
 465 584 465 584 544 589 c 0,52,53
 610 593 610 593 666 631 c 0,54,55
 696 652 696 652 735 692 c 1,56,57
 700 715 700 715 668 730 c 1,58,-1
 667 730 l 1,59,60
 604 760 604 760 545 763 c 0,43,44
780 660 m 1,61,62
 732 610 732 610 697 586 c 0,63,64
 627 539 627 539 547 534 c 0,65,66
 453 529 453 529 370 568 c 0,67,68
 317 593 317 593 251 652 c 1,69,70
 226 629 226 629 201 601 c 1,71,72
 268 538 268 538 309 512 c 1,73,-1
 309 512 l 1,74,75
 377 469 377 469 454 455 c 0,76,77
 526 442 526 442 600 451 c 0,78,79
 645 459 645 459 683 482 c 0,80,81
 728 509 728 509 770 542 c 1,82,-1
 770 543 l 1,83,84
 798 564 798 564 842 602 c 1,85,86
 819 628 819 628 795 648 c 1,87,-1
 794 648 l 2,88,89
 792 650 792 650 780 660 c 1,61,62
EndSplineSet
EndChar

StartChar: uni00B3
Encoding: 179 179 20
Width: 1024
GlyphClass: 2
Flags: W
LayerCount: 2
Fore
SplineSet
0 819 m 1,0,-1
 666 819 l 1,1,-1
 666 817 l 1,2,3
 817 632 817 632 854 586 c 2,4,-1
 884 549 l 1,5,-1
 1024 549 l 1,6,-1
 1024 501 l 1,7,-1
 441 501 l 1,8,-1
 440 501 l 1,9,10
 440 501 440 501 440 501 c 1,11,-1
 438 501 l 1,12,-1
 438 503 l 1,13,14
 398 549 398 549 318 641 c 0,15,16
 242 728 242 728 204 771 c 1,17,-1
 0 771 l 1,18,-1
 0 819 l 1,0,-1
267 771 m 1,19,20
 295 739 295 739 351 675 c 0,21,22
 424 590 424 590 461 549 c 1,23,-1
 621 549 l 1,24,25
 495 692 495 692 425 771 c 1,26,-1
 267 771 l 1,19,20
488 771 m 1,27,28
 578 669 578 669 684 549 c 1,29,-1
 823 549 l 1,30,-1
 817 556 l 1,31,-1
 817 557 l 1,32,33
 782 601 782 601 642 771 c 1,34,-1
 488 771 l 1,27,28
EndSplineSet
EndChar

StartChar: acute
Encoding: 180 180 21
Width: 1024
GlyphClass: 2
Flags: W
LayerCount: 2
Fore
SplineSet
0 819 m 1,0,-1
 1024 819 l 1,1,-1
 1024 763 l 1,2,-1
 955 763 l 1,3,4
 941 733 941 733 935 722 c 0,5,6
 916 688 916 688 898 667 c 0,7,8
 872 638 872 638 831 601 c 0,9,10
 764 542 764 542 721 517 c 0,11,12
 662 484 662 484 586 472 c 0,13,14
 514 461 514 461 445 472 c 0,15,16
 381 483 381 483 316 513 c 1,17,-1
 316 513 l 1,18,19
 263 539 263 539 205 584 c 1,20,-1
 205 585 l 1,21,22
 150 631 150 631 118 673 c 0,23,24
 94 705 94 705 66 763 c 1,25,-1
 0 763 l 1,26,-1
 0 819 l 1,0,-1
130 763 m 1,27,28
 148 727 148 727 163 707 c 0,29,30
 192 669 192 669 241 629 c 0,31,32
 294 587 294 587 340 564 c 0,33,34
 399 537 399 537 454 528 c 0,35,36
 515 519 515 519 577 528 c 0,37,38
 644 539 644 539 693 567 c 0,39,40
 732 589 732 589 794 644 c 0,41,42
 833 679 833 679 856 704 c 0,43,44
 870 721 870 721 885 749 c 0,45,46
 886 751 886 751 889 757 c 0,47,48
 891 761 891 761 892 763 c 1,49,-1
 789 763 l 1,50,51
 776 742 776 742 771 736 c 2,52,-1
 770 735 l 1,53,54
 733 689 733 689 709 669 c 0,55,56
 665 634 665 634 609 618 c 0,57,58
 542 599 542 599 483 606 c 0,59,60
 429 611 429 611 367 644 c 0,61,62
 309 675 309 675 271 711 c 0,63,64
 248 732 248 732 230 763 c 1,65,-1
 130 763 l 1,27,28
299 763 m 1,66,67
 306 756 306 756 309 753 c 1,68,-1
 309 753 l 1,69,70
 343 721 343 721 394 694 c 0,71,72
 447 666 447 666 488 662 c 1,73,-1
 489 662 l 1,74,75
 538 656 538 656 593 672 c 1,76,-1
 593 672 l 1,77,78
 639 686 639 686 673 713 c 0,79,80
 694 730 694 730 720 763 c 1,81,-1
 299 763 l 1,66,67
EndSplineSet
EndChar

StartChar: mu
Encoding: 181 181 22
Width: 1024
GlyphClass: 2
Flags: W
LayerCount: 2
Fore
SplineSet
0 819 m 1,0,-1
 1024 819 l 1,1,-1
 1024 763 l 1,2,-1
 840 763 l 1,3,-1
 992 370 l 1,4,-1
 1024 370 l 1,5,-1
 1024 313 l 1,6,-1
 0 313 l 1,7,-1
 0 370 l 1,8,-1
 257 370 l 1,9,-1
 63 763 l 1,10,-1
 0 763 l 1,11,-1
 0 819 l 1,0,-1
126 763 m 1,12,-1
 320 370 l 1,13,-1
 601 370 l 1,14,-1
 434 763 l 1,15,-1
 126 763 l 1,12,-1
495 763 m 1,16,-1
 663 370 l 1,17,-1
 932 370 l 1,18,-1
 779 763 l 1,19,-1
 495 763 l 1,16,-1
EndSplineSet
EndChar

StartChar: paragraph
Encoding: 182 182 23
Width: 1024
GlyphClass: 2
Flags: W
LayerCount: 2
Fore
SplineSet
155 819 m 1,0,1
 164 724 164 724 172 696 c 0,2,3
 184 656 184 656 219 617 c 0,4,5
 260 570 260 570 304 549 c 0,6,7
 340 532 340 532 406 523 c 1,8,-1
 497 523 l 1,9,10
 462 548 462 548 432 581 c 0,11,12
 389 631 389 631 374 680 c 0,13,14
 364 716 364 716 355 814 c 1,15,-1
 408 819 l 1,16,17
 417 724 417 724 425 696 c 0,18,19
 438 656 438 656 472 617 c 0,20,21
 514 571 514 571 557 549 c 0,22,23
 591 532 591 532 652 523 c 1,24,-1
 791 523 l 1,25,26
 755 548 755 548 726 581 c 0,27,28
 682 631 682 631 667 680 c 0,29,30
 657 715 657 715 648 814 c 1,31,-1
 702 819 l 1,32,33
 711 724 711 724 719 696 c 0,34,35
 731 656 731 656 766 617 c 0,36,37
 808 570 808 570 852 549 c 1,38,-1
 852 549 l 1,39,40
 887 532 887 532 955 523 c 1,41,-1
 1024 523 l 1,42,-1
 1024 469 l 1,43,-1
 0 469 l 1,44,-1
 0 523 l 1,45,-1
 244 523 l 1,46,47
 208 548 208 548 179 581 c 0,48,49
 135 631 135 631 120 680 c 0,50,51
 110 716 110 716 101 814 c 1,52,-1
 155 819 l 1,0,1
EndSplineSet
EndChar

StartChar: periodcentered
Encoding: 183 183 24
Width: 1024
GlyphClass: 2
Flags: W
LayerCount: 2
Fore
SplineSet
0 819 m 1,0,-1
 1023 819 l 1,1,-1
 1023 766 l 1,2,-1
 1009 766 l 1,3,-1
 864 696 l 1,4,-1
 963 552 l 1,5,-1
 913 521 l 1,6,-1
 1024 521 l 1,7,-1
 1024 468 l 1,8,-1
 1 468 l 1,9,-1
 1 521 l 1,10,-1
 59 521 l 1,11,-1
 135 568 l 1,12,-1
 33 717 l 1,13,-1
 134 766 l 1,14,-1
 0 766 l 1,15,-1
 0 819 l 1,0,-1
256 766 m 1,16,-1
 111 696 l 1,17,-1
 210 552 l 1,18,-1
 159 521 l 1,19,-1
 313 521 l 1,20,-1
 388 568 l 1,21,-1
 286 717 l 1,22,-1
 388 766 l 1,23,-1
 256 766 l 1,16,-1
510 766 m 1,24,-1
 365 696 l 1,25,-1
 463 552 l 1,26,-1
 413 521 l 1,27,-1
 567 521 l 1,28,-1
 644 568 l 1,29,-1
 542 717 l 1,30,-1
 643 766 l 1,31,-1
 510 766 l 1,24,-1
765 766 m 1,32,-1
 620 696 l 1,33,-1
 719 552 l 1,34,-1
 668 521 l 1,35,-1
 811 521 l 1,36,-1
 888 568 l 1,37,-1
 786 717 l 1,38,-1
 887 766 l 1,39,-1
 765 766 l 1,32,-1
EndSplineSet
EndChar

StartChar: cedilla
Encoding: 184 184 25
Width: 1024
GlyphClass: 2
Flags: W
LayerCount: 2
Fore
SplineSet
0 820 m 1,0,-1
 0 712 l 1,1,-1
 386 712 l 1,2,-1
 386 820 l 1,3,-1
 0 820 l 1,0,-1
638 820 m 1,4,-1
 638 712 l 1,5,-1
 1024 712 l 1,6,-1
 1024 820 l 1,7,-1
 638 820 l 1,4,-1
412 618 m 0,8,9
 412 672 412 672 457 700 c 0,10,11
 482 715 482 715 510 716 c 0,12,13
 563 716 563 716 592 671 c 0,14,15
 607 646 607 646 607 618 c 0,16,17
 607 565 607 565 562 536 c 0,18,19
 538 521 538 521 510 521 c 0,20,21
 457 521 457 521 428 566 c 0,22,23
 413 590 413 590 412 618 c 0,8,9
359 618 m 0,24,25
 359 543 359 543 419 498 c 0,26,27
 460 468 460 468 510 467 c 0,28,29
 585 467 585 467 630 527 c 0,30,31
 661 568 661 568 661 618 c 0,32,33
 661 693 661 693 601 739 c 0,34,35
 560 769 560 769 510 769 c 0,36,37
 435 769 435 769 389 709 c 0,38,39
 359 668 359 668 359 618 c 0,24,25
EndSplineSet
EndChar

StartChar: uni00B9
Encoding: 185 185 26
Width: 1024
GlyphClass: 2
Flags: W
LayerCount: 2
Fore
SplineSet
0 452 m 1,0,-1
 0 382 l 1,1,2
 191 382 191 382 241 384 c 0,3,4
 267 384 267 384 280 386 c 0,5,6
 295 389 295 389 306 394 c 0,7,8
 322 403 322 403 337 425 c 0,9,10
 345 437 345 437 365 467 c 0,11,12
 387 501 387 501 396 514 c 0,13,14
 420 551 420 551 447 576 c 0,15,16
 471 598 471 598 525 631 c 0,17,18
 575 664 575 664 635 690 c 0,19,20
 667 706 667 706 707 722 c 1,21,22
 667 671 667 671 612 603 c 0,23,24
 580 565 580 565 567 547 c 0,25,26
 537 503 537 503 520 467 c 0,27,28
 514 454 514 454 512 447 c 0,29,30
 509 436 509 436 509 428 c 0,31,32
 509 417 509 417 514 407 c 0,33,34
 520 397 520 397 529 390 c 0,35,36
 538 385 538 385 551 382 c 0,37,38
 573 377 573 377 635 375 c 0,39,40
 717 372 717 372 1024 372 c 1,41,-1
 1024 443 l 1,42,43
 717 443 717 443 638 445 c 0,44,45
 609 446 609 446 589 448 c 1,46,47
 605 478 605 478 625 507 c 0,48,49
 629 513 629 513 699 599 c 0,50,51
 787 708 787 708 808 744 c 0,52,53
 814 753 814 753 817 760 c 0,54,55
 821 771 821 771 821 779 c 0,56,57
 820 801 820 801 802 813 c 0,58,59
 792 819 792 819 780 819 c 0,60,61
 771 819 771 819 759 815 c 0,62,63
 750 812 750 812 735 807 c 0,64,65
 667 784 667 784 604 754 c 0,66,67
 541 725 541 725 487 690 c 0,68,69
 427 653 427 653 399 627 c 0,70,71
 365 595 365 595 337 553 c 0,72,73
 328 539 328 539 311 513 c 0,74,75
 287 477 287 477 273 456 c 1,76,77
 265 455 265 455 241 454 c 0,78,79
 240 454 240 454 239 454 c 0,80,81
 189 452 189 452 0 452 c 1,0,-1
EndSplineSet
EndChar

StartChar: ordmasculine
Encoding: 186 186 27
Width: 1024
GlyphClass: 2
Flags: W
LayerCount: 2
Fore
SplineSet
0 793 m 1,0,-1
 0 712 l 1,1,-1
 165 712 l 1,2,3
 159 681 159 681 159 640 c 0,4,5
 163 546 163 546 201 484 c 0,6,7
 237 428 237 428 308 415 c 0,8,9
 367 405 367 405 409 429 c 0,10,11
 461 458 461 458 488 519 c 0,12,13
 504 558 504 558 513 633 c 0,14,15
 516 653 516 653 527 738 c 0,16,17
 530 738 530 738 537 739 c 0,18,19
 553 739 553 739 566 739 c 1,20,21
 558 695 558 695 561 658 c 0,22,23
 566 601 566 601 598 533 c 0,24,25
 629 475 629 475 660 454 c 0,26,27
 664 452 664 452 667 450 c 0,28,29
 704 426 704 426 751 426 c 0,30,31
 761 426 761 426 773 428 c 0,32,33
 821 438 821 438 857 478 c 0,34,35
 886 514 886 514 896 564 c 0,36,37
 898 573 898 573 910 672 c 0,38,39
 913 694 913 694 916 710 c 1,40,-1
 1024 710 l 1,41,-1
 1024 791 l 1,42,-1
 912 791 l 2,43,44
 897 791 897 791 891 791 c 0,45,46
 879 789 879 789 870 786 c 0,47,48
 858 779 858 779 851 769 c 0,49,50
 845 761 845 761 842 751 c 2,51,-1
 842 750 l 1,52,53
 834 726 834 726 829 680 c 0,54,55
 820 595 820 595 817 580 c 0,56,57
 810 548 810 548 794 529 c 0,58,59
 777 512 777 512 751 508 c 0,60,61
 728 508 728 508 711 518 c 0,62,63
 692 531 692 531 670 571 c 0,64,65
 646 624 646 624 641 679 c 0,66,67
 641 706 641 706 651 742 c 1,68,69
 655 772 655 772 650 786 c 0,70,71
 643 802 643 802 627 811 c 0,72,73
 615 817 615 817 598 819 c 0,74,75
 554 822 554 822 510 819 c 0,76,77
 482 816 482 816 467 802 c 0,78,79
 452 786 452 786 447 753 c 0,80,81
 434 652 434 652 433 644 c 0,82,83
 424 578 424 578 413 550 c 0,84,85
 397 515 397 515 371 501 c 0,86,87
 351 490 351 490 322 495 c 0,88,89
 286 502 286 502 270 527 c 0,90,91
 260 544 260 544 252 572 c 0,92,93
 242 609 242 609 240 652 c 0,94,95
 241 681 241 681 256 746 c 1,96,97
 255 765 255 765 243 778 c 0,98,99
 233 787 233 787 210 792 c 0,100,101
 202 793 202 793 182 793 c 2,102,-1
 0 793 l 1,0,-1
EndSplineSet
EndChar

StartChar: guillemotright
Encoding: 187 187 28
Width: 1024
GlyphClass: 2
LayerCount: 2
Fore
SplineSet
310.10546875 819.448242188 m 0,0,1
 311.47225603 819.246816057 311.47225603 819.246816057 313.053710938 818.935546875 c 0,2,3
 324.906215384 818.677671904 324.906215384 818.677671904 330.809570312 817.846679688 c 0,4,5
 341.767617249 815.533109814 341.767617249 815.533109814 349.974609375 809.76953125 c 0,6,7
 351.436508411 809.253545064 351.436508411 809.253545064 354.247431342 808.403495663 c 0,8,9
 359.250969707 806.773255795 359.250969707 806.773255795 361.383789062 805.923828125 c 0,10,11
 371.429816819 801.618322845 371.429816819 801.618322845 390.236484551 791.772406522 c 0,12,13
 410.668364173 781.222669156 410.668364173 781.222669156 419.0078125 778.169921875 c 0,14,-1
 419.969726562 777.849609375 l 2,15,16
 443.645621855 768.952278721 443.645621855 768.952278721 481.439453125 764.901367188 c 0,17,18
 520.256834017 760.978060175 520.256834017 760.978060175 541.05078125 763.555664062 c 2,19,-1
 542.140625 763.68359375 l 1,20,-1
 543.229492188 763.748046875 l 2,21,22
 560.898808824 765.237437809 560.898808824 765.237437809 581.560546875 773.810546875 c 0,23,24
 587.87378847 776.441363526 587.87378847 776.441363526 600.420542134 781.51853021 c 0,25,26
 617.367912514 788.405626469 617.367912514 788.405626469 623.095703125 790.924804688 c 2,27,-1
 623.609375 791.1171875 l 2,28,29
 636.333172304 796.3000036 636.333172304 796.3000036 646.620117188 801.4375 c 2,30,-1
 647.774414062 802.013671875 l 1,31,-1
 648.9921875 802.526367188 l 2,32,33
 666.948593988 809.285284799 666.948593988 809.285284799 678.15625 810.731445312 c 0,34,35
 692.954480091 812.324803042 692.954480091 812.324803042 726.678710938 814.577148438 c 1,36,-1
 726.744140625 813.231445312 l 1,37,38
 738.750996062 813.416060374 738.750996062 813.416060374 749.114257812 813.423828125 c 0,39,40
 803.966117754 814.642195749 803.966117754 814.642195749 1023.90234375 814.641601562 c 1,41,-1
 1023.90234375 752.658203125 l 1,42,43
 804.806558995 752.644994707 804.806558995 752.644994707 750.524414062 751.440429688 c 1,44,-1
 750.139648438 751.376953125 l 2,45,46
 739.245219319 751.376953125 739.245219319 751.376953125 725.648953789 750.868875138 c 1,47,48
 724.951074428 741.108581885 724.951074428 741.108581885 724.8203125 739.646484375 c 0,49,50
 721.922479573 713.435500486 721.922479573 713.435500486 714.436523438 692.40625 c 0,51,-1
 714.115234375 691.508789062 l 2,52,53
 704.659321482 668.783841545 704.659321482 668.783841545 685.975585938 645.23046875 c 2,54,-1
 685.3984375 644.525390625 l 1,55,-1
 684.7578125 643.8203125 l 2,56,57
 661.627745993 618.584274432 661.627745993 618.584274432 643.54296875 605.682617188 c 0,58,59
 616.2434334 587.06442892 616.2434334 587.06442892 595.213867188 580.36328125 c 0,60,61
 565.222716366 571.382254178 565.222716366 571.382254178 533.551757812 569.146484375 c 0,62,63
 508.131377358 567.700442439 508.131377358 567.700442439 471.184570312 574.594726562 c 0,64,-1
 470.86328125 574.659179688 l 2,65,66
 428.543153836 583.390149412 428.543153836 583.390149412 405.163085938 593.952148438 c 0,67,68
 374.277085667 606.992775373 374.277085667 606.992775373 351.961914062 630.360351562 c 0,69,70
 332.420877662 648.49576412 332.420877662 648.49576412 318.438476562 679.009765625 c 2,71,-1
 317.92578125 680.1640625 l 1,72,-1
 317.541015625 681.25390625 l 2,73,74
 308.383022713 707.090158778 308.383022713 707.090158778 304.849609375 729.327148438 c 2,75,-1
 304.721679688 730.48046875 l 1,76,-1
 304.59375 731.634765625 l 2,77,78
 303.515226524 745.862980111 303.515226524 745.862980111 302.862304688 756.6328125 c 1,79,80
 287.679580036 756.581471988 287.679580036 756.581471988 277.928710938 756.375976562 c 0,81,-1
 277.223632812 756.375976562 l 2,82,83
 222.607000596 756.349001636 222.607000596 756.349001636 1.345703125 751.376953125 c 1,84,-1
 -0.064453125 813.423828125 l 1,85,86
 218.889865965 818.328888451 218.889865965 818.328888451 276.518554688 818.359375 c 0,87,88
 282.678146444 818.496024912 282.678146444 818.496024912 292.918748706 818.808923199 c 0,89,90
 304.462173658 819.143206602 304.462173658 819.143206602 308.887695312 819.192382812 c 0,91,-1
 310.10546875 819.448242188 l 0,0,1
301.836914062 779.323242188 m 1,92,93
 302.060697111 777.346413594 302.060697111 777.346413594 302.09375 776.502929688 c 1,94,95
 301.867323385 777.556817479 301.867323385 777.556817479 301.801635742 778.384399414 c 128,-1,96
 301.735948099 779.21198135 301.735948099 779.21198135 301.836914062 779.323242188 c 1,92,93
EndSplineSet
EndChar

StartChar: onequarter
Encoding: 188 188 29
Width: 1024
GlyphClass: 2
Flags: W
LayerCount: 2
Fore
SplineSet
897 640 m 0,0,1
 876 640 876 640 830 639 c 0,2,3
 735 638 735 638 692 640 c 0,4,5
 650 642 650 642 626 647 c 1,6,7
 670 703 670 703 678 718 c 0,8,9
 684 729 684 729 688 738 c 0,10,11
 702 775 702 775 684 800 c 0,12,13
 667 819 667 819 637 819 c 0,14,15
 619 819 619 819 581 813 c 0,16,17
 502 800 502 800 459 787 c 0,18,19
 394 767 394 767 339 737 c 0,20,21
 325 729 325 729 300 715 c 0,22,23
 268 697 268 697 251 687 c 0,24,25
 200 661 200 661 137 643 c 0,26,27
 77 628 77 628 0 617 c 1,28,-1
 10 546 l 1,29,30
 92 559 92 559 155 574 c 1,31,-1
 156 574 l 1,32,33
 227 595 227 595 284 624 c 0,34,35
 303 634 303 634 335 653 c 0,36,37
 359 667 359 667 373 674 c 0,38,39
 422 701 422 701 480 719 c 0,40,41
 520 730 520 730 597 743 c 0,42,43
 605 744 605 744 611 745 c 1,44,45
 602 731 602 731 582 706 c 0,46,47
 565 685 565 685 560 677 c 0,48,49
 552 666 552 666 549 658 c 0,50,51
 545 646 545 646 545 636 c 0,52,53
 545 620 545 620 555 607 c 0,54,55
 562 598 562 598 571 592 c 0,56,57
 587 583 587 583 610 578 c 0,58,59
 641 571 641 571 689 569 c 0,60,61
 715 568 715 568 897 569 c 0,62,63
 989 569 989 569 1021 567 c 1,64,-1
 1024 639 l 1,65,66
 989 640 989 640 897 640 c 0,0,1
370 463 m 0,67,68
 370 438 370 438 389 421 c 0,69,70
 401 412 401 412 418 406 c 0,71,72
 463 390 463 390 554 388 c 0,73,74
 630 386 630 386 782 398 c 0,75,76
 922 409 922 409 992 415 c 1,77,-1
 985 486 l 1,78,79
 915 480 915 480 760 468 c 0,80,81
 626 457 626 457 556 459 c 0,82,83
 485 461 485 461 448 471 c 1,84,85
 454 477 454 477 467 491 c 0,86,87
 477 503 477 503 482 508 c 0,88,89
 501 529 501 529 514 549 c 0,90,91
 520 560 520 560 524 568 c 0,92,93
 529 583 529 583 528 594 c 0,94,95
 525 607 525 607 517 617 c 0,96,97
 502 630 502 630 480 631 c 0,98,99
 464 631 464 631 431 624 c 0,100,101
 349 606 349 606 303 588 c 0,102,103
 271 575 271 575 201 534 c 0,104,105
 160 512 160 512 123 504 c 0,106,107
 87 499 87 499 0 496 c 1,108,-1
 2 425 l 1,109,110
 102 428 102 428 135 434 c 0,111,112
 189 444 189 444 254 483 c 0,113,114
 300 510 300 510 329 521 c 0,115,116
 364 536 364 536 423 549 c 1,117,118
 393 515 393 515 391 513 c 0,119,120
 381 500 381 500 376 490 c 0,121,122
 370 475 370 475 370 463 c 0,67,68
EndSplineSet
EndChar

StartChar: onehalf
Encoding: 189 189 30
Width: 1024
GlyphClass: 2
Flags: W
LayerCount: 2
Fore
SplineSet
363 817 m 1,0,1
 367 643 367 643 367 591 c 0,2,3
 367 468 367 468 357 404 c 0,4,5
 348 350 348 350 328 335 c 0,6,7
 312 323 312 323 274 318 c 0,8,9
 205 309 205 309 1 313 c 1,10,-1
 0 226 l 1,11,12
 211 223 211 223 286 232 c 0,13,14
 348 241 348 241 380 265 c 0,15,16
 429 303 429 303 443 391 c 0,17,18
 454 458 454 458 454 591 c 0,19,20
 454 645 454 645 450 819 c 1,21,-1
 363 817 l 1,0,1
558 819 m 1,22,23
 554 644 554 644 554 591 c 0,24,25
 554 457 554 457 565 390 c 0,26,27
 581 301 581 301 629 264 c 0,28,29
 664 239 664 239 726 231 c 0,30,31
 782 225 782 225 874 225 c 0,32,33
 934 225 934 225 1024 228 c 1,34,-1
 1021 314 l 1,35,36
 932 312 932 312 874 312 c 0,37,38
 787 312 787 312 736 318 c 0,39,40
 689 324 689 324 674 340 c 0,41,42
 659 359 659 359 651 405 c 0,43,44
 641 465 641 465 641 591 c 0,45,46
 641 644 641 644 644 817 c 1,47,-1
 558 819 l 1,22,23
EndSplineSet
EndChar

StartChar: threequarters
Encoding: 190 190 31
Width: 1024
GlyphClass: 2
Flags: W
LayerCount: 2
Fore
SplineSet
942 818 m 1,0,-1
 1024 791 l 1,1,2
 1022 787 1022 787 1019 778 c 0,3,4
 1014 762 1014 762 1011 752 c 2,5,-1
 1010 750 l 1,6,-1
 1010 748 l 2,7,8
 1008 745 1008 745 1005 734 c 0,9,10
 994 694 994 694 982 669 c 0,11,12
 956 618 956 618 914 575 c 256,13,14
 872 532 872 532 810 497 c 1,15,-1
 809 496 l 1,16,17
 744 462 744 462 671 438 c 0,18,19
 617 420 617 420 554 414 c 1,20,-1
 553 413 l 1,21,-1
 552 413 l 2,22,23
 490 410 490 410 437 417 c 0,24,25
 363 424 363 424 299 445 c 0,26,27
 225 469 225 469 176 507 c 0,28,29
 133 538 133 538 92 594 c 0,30,31
 66 630 66 630 43 679 c 0,32,33
 28 711 28 711 0 784 c 1,34,-1
 81 815 l 1,35,36
 100 766 100 766 114 734 c 1,37,-1
 914 734 l 1,38,39
 928 777 928 777 928 777 c 2,40,41
 929 782 929 782 942 818 c 1,0,-1
161 647 m 1,42,43
 162 646 162 646 162 645 c 0,44,45
 196 599 196 599 227 577 c 1,46,-1
 227 576 l 1,47,-1
 228 576 l 1,48,49
 267 546 267 546 326 527 c 1,50,-1
 326 527 l 1,51,52
 382 509 382 509 446 503 c 1,53,-1
 447 503 l 1,54,-1
 448 503 l 1,55,56
 494 497 494 497 546 500 c 0,57,58
 600 506 600 506 643 520 c 0,59,60
 710 542 710 542 768 573 c 0,61,62
 820 602 820 602 851 635 c 1,63,-1
 851 636 l 1,64,-1
 852 636 l 2,65,66
 854 638 854 638 857 642 c 256,67,68
 860 646 860 646 861 647 c 1,69,-1
 161 647 l 1,42,43
EndSplineSet
EndChar

StartChar: questiondown
Encoding: 191 191 32
Width: 1024
GlyphClass: 2
Flags: W
LayerCount: 2
Fore
SplineSet
4 820 m 1,0,1
 117 816 117 816 176 807 c 0,2,3
 285 791 285 791 356 756 c 0,4,5
 403 732 403 732 475 669 c 0,6,7
 482 663 482 663 486 659 c 1,8,-1
 487 659 l 2,9,10
 488 657 488 657 512 637 c 1,11,12
 515 640 515 640 521 645 c 0,13,14
 532 654 532 654 537 659 c 1,15,-1
 538 659 l 1,16,17
 607 719 607 719 633 736 c 0,18,19
 651 747 651 747 668 756 c 0,20,21
 740 792 740 792 848 807 c 0,22,23
 909 816 909 816 1020 820 c 1,24,-1
 1022 735 l 1,25,26
 915 731 915 731 860 723 c 0,27,28
 765 709 765 709 706 679 c 0,29,30
 670 662 670 662 602 602 c 0,31,32
 597 598 597 598 594 596 c 2,33,-1
 594 595 l 2,34,35
 591 593 591 593 585 588 c 0,36,37
 581 584 581 584 579 582 c 1,38,39
 582 580 582 580 589 575 c 0,40,41
 601 565 601 565 607 561 c 0,42,43
 688 502 688 502 739 474 c 0,44,45
 808 440 808 440 866 431 c 0,46,47
 890 427 890 427 961 428 c 0,48,49
 1007 428 1007 428 1024 426 c 1,50,-1
 1015 341 l 1,51,52
 1001 342 1001 342 961 342 c 0,53,54
 887 342 887 342 880 343 c 0,55,56
 866 344 866 344 852 346 c 0,57,58
 780 358 780 358 700 398 c 1,59,-1
 699 399 l 1,60,61
 642 430 642 430 556 492 c 1,62,-1
 555 493 l 2,63,64
 544 501 544 501 512 527 c 1,65,66
 478 500 478 500 469 493 c 1,67,-1
 469 492 l 1,68,-1
 468 492 l 1,69,70
 381 429 381 429 325 399 c 1,71,-1
 324 398 l 1,72,73
 243 358 243 358 172 346 c 0,74,75
 139 342 139 342 63 342 c 0,76,77
 22 342 22 342 10 341 c 1,78,-1
 0 426 l 1,79,80
 19 428 19 428 63 428 c 0,81,82
 136 428 136 428 148 429 c 0,83,84
 154 430 154 430 158 431 c 0,85,86
 217 440 217 440 285 474 c 0,87,88
 338 502 338 502 417 561 c 0,89,90
 423 565 423 565 434 574 c 0,91,92
 442 580 442 580 445 582 c 1,93,94
 443 584 443 584 439 588 c 0,95,96
 433 593 433 593 430 595 c 0,97,98
 360 656 360 656 332 672 c 0,99,100
 325 676 325 676 318 679 c 0,101,102
 258 709 258 709 164 723 c 0,103,104
 108 731 108 731 2 735 c 1,105,-1
 4 820 l 1,0,1
EndSplineSet
EndChar

StartChar: Agrave
Encoding: 192 192 33
Width: 1024
GlyphClass: 2
Flags: W
LayerCount: 2
Fore
SplineSet
512 810 m 0,0,1
 716 810 716 810 863 712 c 0,2,3
 866 710 866 710 867 709 c 0,4,5
 995 621 995 621 1013 497 c 0,6,7
 1016 479 1016 479 1016 462 c 0,8,9
 1016 333 1016 333 895 236 c 0,10,11
 881 225 881 225 867 215 c 0,12,13
 716 116 716 116 512 114 c 0,14,15
 308 114 308 114 161 212 c 0,16,17
 158 214 158 214 157 215 c 0,18,19
 29 303 29 303 11 427 c 0,20,21
 8 445 8 445 8 462 c 0,22,23
 8 591 8 591 129 688 c 0,24,25
 143 699 143 699 157 709 c 0,26,27
 308 809 308 809 512 810 c 0,0,1
512 800 m 0,28,29
 312 800 312 800 168 704 c 0,30,31
 165 702 165 702 163 700 c 0,32,33
 36 613 36 613 21 491 c 0,34,35
 19 476 19 476 19 462 c 0,36,37
 19 336 19 336 139 241 c 0,38,39
 151 232 151 232 163 224 c 0,40,41
 313 127 313 127 512 124 c 0,42,43
 712 124 712 124 856 220 c 0,44,45
 859 222 859 222 861 224 c 0,46,47
 988 311 988 311 1003 433 c 0,48,49
 1005 448 1005 448 1005 462 c 0,50,51
 1005 588 1005 588 885 683 c 0,52,53
 873 692 873 692 861 700 c 0,54,55
 711 798 711 798 512 800 c 0,28,29
1010 462 m 0,56,57
 1010 335 1010 335 890 239 c 0,58,59
 762 136 762 136 568 121 c 0,60,61
 539 119 539 119 512 119 c 0,62,63
 310 119 310 119 165 216 c 0,64,65
 36 302 36 302 17 424 c 0,66,67
 14 443 14 443 14 462 c 0,68,69
 14 589 14 589 134 685 c 0,70,71
 262 788 262 788 456 803 c 0,72,73
 485 805 485 805 512 805 c 0,74,75
 714 805 714 805 859 708 c 0,76,77
 988 622 988 622 1007 500 c 0,78,79
 1010 481 1010 481 1010 462 c 0,56,57
472 448 m 0,80,81
 469 448 469 448 466 447 c 0,82,83
 456 445 456 445 449 438 c 0,84,85
 443 431 443 431 439 422 c 0,86,87
 438 419 438 419 436 414 c 0,88,89
 434 407 434 407 432 403 c 0,90,91
 429 398 429 398 425 387 c 0,92,93
 421 379 421 379 420 376 c 0,94,95
 417 371 417 371 414 364 c 0,96,97
 412 359 412 359 411 357 c 2,98,-1
 410 355 l 1,99,-1
 409 353 l 2,100,101
 409 351 409 351 406 345 c 0,102,103
 401 334 401 334 398 327 c 0,104,105
 393 310 393 310 393 296 c 0,106,107
 393 280 393 280 392 274 c 2,108,-1
 391 272 l 1,109,-1
 391 270 l 2,110,111
 391 264 391 264 386 255 c 0,112,113
 377 241 377 241 365 226 c 0,114,115
 351 209 351 209 342 192 c 1,116,-1
 342 191 l 1,117,118
 336 178 336 178 323 149 c 1,119,-1
 366 130 l 1,120,121
 379 158 379 158 385 171 c 0,122,123
 392 184 392 184 401 195 c 0,124,125
 417 214 417 214 427 230 c 1,126,-1
 428 231 l 1,127,-1
 428 232 l 1,128,129
 438 252 438 252 439 266 c 0,130,131
 441 277 441 277 441 296 c 0,132,133
 441 304 441 304 443 312 c 0,134,135
 444 313 444 313 446 319 c 0,136,137
 451 329 451 329 453 335 c 0,138,139
 456 340 456 340 459 348 c 0,140,141
 462 353 462 353 462 355 c 0,142,143
 465 360 465 360 470 371 c 0,144,145
 473 378 473 378 474 381 c 1,146,147
 475 379 475 379 475 379 c 2,148,149
 478 375 478 375 481 369 c 0,150,151
 487 358 487 358 492 352 c 0,152,153
 500 342 500 342 504 333 c 2,154,-1
 505 331 l 1,155,-1
 507 329 l 2,156,157
 508 328 508 328 510 324 c 0,158,159
 516 314 516 314 522 308 c 0,160,161
 538 293 538 293 549 287 c 0,162,163
 558 283 558 283 582 275 c 0,164,165
 589 272 589 272 605 268 c 0,166,167
 618 264 618 264 623 262 c 0,168,169
 639 257 639 257 653 249 c 1,170,-1
 654 249 l 1,171,172
 670 240 670 240 685 230 c 1,173,-1
 686 230 l 1,174,-1
 687 229 l 1,175,176
 708 217 708 217 713 215 c 0,177,178
 720 213 720 213 729 210 c 0,179,180
 734 209 734 209 735 208.5 c 128,-1,181
 736 208 736 208 736 208 c 1,182,-1
 738 206 l 1,183,-1
 740 203 l 2,184,185
 741 202 741 202 746 193 c 0,186,187
 746 192 746 192 747 191 c 2,188,-1
 748 190 l 2,189,190
 752 182 752 182 762 164 c 1,191,-1
 804 188 l 1,192,193
 793 206 793 206 789 213 c 0,194,195
 781 229 781 229 775 235 c 0,196,197
 766 247 766 247 752 253 c 0,198,199
 746 255 746 255 736 258 c 0,200,201
 732 259 732 259 731 260 c 2,202,-1
 730 260 l 1,203,-1
 729 260 l 2,204,205
 725 262 725 262 711 270 c 0,206,207
 693 282 693 282 676 291 c 0,208,209
 657 301 657 301 638 308 c 0,210,211
 631 310 631 310 615 315 c 0,212,213
 602 318 602 318 597 320 c 0,214,215
 574 328 574 328 570 330 c 0,216,217
 565 333 565 333 556 341 c 0,218,219
 556 342 556 342 554 345 c 0,220,221
 549 352 549 352 546 357 c 0,222,223
 538 370 538 370 529 382 c 0,224,225
 528 384 528 384 524 390 c 0,226,227
 519 399 519 399 516 404 c 0,228,229
 515 405 515 405 513 409 c 0,230,231
 507 418 507 418 504 423 c 0,232,233
 494 437 494 437 488 442 c 1,234,-1
 487 442 l 1,235,-1
 486 443 l 2,236,237
 479 447 479 447 472 448 c 0,80,81
69 632 m 1,238,-1
 53 587 l 1,239,240
 96 571 96 571 109 571 c 0,241,242
 111 570 111 570 113 570 c 0,243,244
 132 569 132 569 145 573 c 1,245,-1
 146 573 l 1,246,-1
 147 572 l 2,247,248
 161 559 161 559 176 556 c 0,249,250
 193 553 193 553 218 559 c 1,251,-1
 218 559 l 1,252,253
 220 559 220 559 224 560 c 1,254,-1
 223 560 l 1,255,-1
 223 559 l 1,256,257
 212 548 212 548 212 531 c 2,258,-1
 212 530 l 1,259,-1
 212 529 l 1,260,261
 207 524 207 524 206 523 c 0,262,263
 204 522 204 522 202 521 c 0,264,265
 192 515 192 515 188 509 c 0,266,267
 187 507 187 507 187 507 c 2,268,269
 183 498 183 498 185 490 c 2,270,-1
 185 489 l 1,271,272
 178 483 178 483 175 478 c 0,273,274
 164 459 164 459 166 444 c 0,275,276
 170 426 170 426 178 420 c 1,277,-1
 178 419 l 1,278,-1
 179 418 l 1,279,-1
 179 417 l 2,280,281
 180 416 180 416 180 415 c 0,282,283
 175 411 175 411 171 408 c 0,284,285
 159 398 159 398 154 384 c 0,286,287
 152 374 152 374 154 364 c 0,288,289
 156 358 156 358 160 352 c 0,290,291
 162 349 162 349 164 346 c 1,292,-1
 162 345 l 2,293,294
 159 341 159 341 160 342 c 1,295,-1
 159 341 l 2,296,297
 155 340 155 340 153 339 c 0,298,299
 145 335 145 335 139 329 c 0,300,301
 134 323 134 323 130 315 c 0,302,303
 128 312 128 312 126 309 c 0,304,305
 123 307 123 307 122 306 c 0,306,307
 119 306 119 306 117 306 c 1,308,-1
 118 306 l 1,309,310
 108 307 108 307 100 304 c 0,311,312
 92 299 92 299 83 290 c 1,313,-1
 113 259 l 1,314,-1
 112 259 l 1,315,-1
 110 259 l 1,316,-1
 111 259 l 2,317,318
 113 259 113 259 113 259 c 1,319,-1
 116 256 l 2,320,321
 118 257 118 257 119 258 c 0,322,323
 127 258 127 258 134 259 c 2,324,-1
 135 259 l 1,325,-1
 136 260 l 1,326,327
 150 265 150 265 161 276 c 1,328,-1
 162 278 l 1,329,-1
 163 279 l 2,330,331
 167 284 167 284 171 291 c 0,332,333
 172 293 172 293 174 295 c 1,334,-1
 173 295 l 1,335,-1
 174 296 l 2,336,337
 178 298 178 298 181 299 c 0,338,339
 195 307 195 307 206 321 c 0,340,341
 212 330 212 330 214 338 c 0,342,343
 216 349 216 349 211 360 c 0,344,345
 208 369 208 369 204 374 c 1,346,347
 208 376 208 376 209 377 c 0,348,349
 220 385 220 385 224 393 c 0,350,351
 232 408 232 408 226 427 c 1,352,-1
 225 427 l 1,353,-1
 226 426 l 1,354,355
 223 437 223 437 219 444 c 1,356,-1
 220 441 l 1,357,358
 217 448 217 448 215 451 c 0,359,360
 217 453 217 453 217 453 c 2,361,362
 223 457 223 457 226 459 c 0,363,364
 233 466 233 466 235 470 c 0,365,366
 239 476 239 476 240 481 c 0,367,368
 240 485 240 485 239 489 c 0,369,370
 250 498 250 498 255 506 c 0,371,372
 261 515 261 515 260 527 c 0,373,374
 261 528 261 528 265 530 c 0,375,376
 270 533 270 533 272 534 c 2,377,-1
 273 534 l 1,378,-1
 273 535 l 2,379,380
 275 536 275 536 281 539 c 0,381,382
 294 547 294 547 301 552 c 0,383,384
 305 556 305 556 307 558 c 0,385,386
 312 563 312 563 313 566 c 0,387,388
 318 579 318 579 313 589 c 0,389,390
 308 597 308 597 299 600 c 0,391,392
 294 602 294 602 290 601 c 0,393,394
 283 600 283 600 278 598 c 0,395,396
 269 593 269 593 266 592 c 0,397,398
 260 600 260 600 253 604 c 0,399,400
 241 610 241 610 226 609 c 0,401,402
 218 608 218 608 207 605 c 0,403,404
 192 602 192 602 184 603 c 0,405,406
 183 603 183 603 182 603 c 0,407,408
 181 605 181 605 180 606 c 0,409,410
 163 621 163 621 147 622 c 0,411,412
 136 622 136 622 126 619 c 0,413,414
 120 618 120 618 117 618 c 2,415,-1
 115 618 l 1,416,-1
 114 618 l 2,417,418
 106 618 106 618 69 632 c 1,238,-1
273 592 m 1,419,-1
 273 591 l 1,420,-1
 273 592 l 1,419,-1
299 555 m 1,421,-1
 298 555 l 1,422,-1
 299 555 l 1,421,-1
226 479 m 1,423,424
 225 479 225 479 225 479 c 1,425,-1
 224 479 l 1,426,-1
 226 479 l 1,423,424
474 801 m 1,427,-1
 427 796 l 1,428,429
 428 791 428 791 428 782 c 0,430,431
 429 771 429 771 430 765 c 2,432,-1
 430 741 l 2,433,434
 430 721 430 721 435 712 c 0,435,436
 440 702 440 702 446 696 c 1,437,438
 440 684 440 684 442 670 c 0,439,440
 444 661 444 661 450 652 c 0,441,442
 453 648 453 648 460 640 c 0,443,444
 462 638 462 638 464 635 c 128,-1,445
 466 632 466 632 467.5 630 c 128,-1,446
 469 628 469 628 470.5 626 c 128,-1,447
 472 624 472 624 472.5 623 c 128,-1,448
 473 622 473 622 473 622 c 2,449,450
 474 620 474 620 472 611 c 2,451,-1
 472 610 l 1,452,-1
 472 611 l 1,453,454
 469 594 469 594 473 580 c 0,455,456
 477 564 477 564 492 554 c 2,457,-1
 493 553 l 1,458,-1
 495 552 l 2,459,460
 503 549 503 549 507 547 c 0,461,462
 521 544 521 544 533 551 c 0,463,464
 541 556 541 556 547 566 c 0,465,466
 548 568 548 568 550 570 c 0,467,468
 553 576 553 576 555 578 c 0,469,470
 558 582 558 582 568 594 c 0,471,472
 576 602 576 602 579 606 c 0,473,474
 587 615 587 615 598 634 c 0,475,476
 599 636 599 636 600 638 c 0,477,478
 605 638 605 638 606 638 c 0,479,480
 626 639 626 639 638 656 c 2,481,-1
 639 657 l 1,482,-1
 640 658 l 2,483,484
 643 665 643 665 646 675 c 0,485,486
 647 681 647 681 648 683 c 2,487,-1
 649 684 l 1,488,-1
 649 686 l 1,489,490
 660 683 660 683 669 686 c 0,491,492
 677 689 677 689 684 694 c 0,493,494
 691 700 691 700 693 701 c 2,495,-1
 694 702 l 2,496,497
 703 709 703 709 712 712 c 0,498,499
 720 713 720 713 727 712 c 0,500,501
 751 705 751 705 755 705 c 0,502,503
 761 705 761 705 765 705 c 0,504,505
 770 706 770 706 775 708.5 c 128,-1,506
 780 711 780 711 782.5 712.5 c 128,-1,507
 785 714 785 714 788.5 718 c 128,-1,508
 792 722 792 722 793 723.5 c 128,-1,509
 794 725 794 725 797 729 c 128,-1,510
 800 733 800 733 800 733 c 1,511,-1
 760 760 l 1,512,513
 758 757 758 757 756 754 c 0,514,515
 755 754 755 754 755 753 c 1,516,517
 755 754 755 754 752 754 c 0,518,519
 745 756 745 756 741 757 c 0,520,521
 719 763 719 763 699 757 c 0,522,523
 680 752 680 752 665 739 c 1,524,-1
 666 741 l 1,525,526
 662 738 662 738 658 734 c 1,527,528
 654 736 654 736 651 737 c 0,529,530
 636 741 636 741 624 734 c 0,531,532
 615 727 615 727 610 716 c 0,533,534
 606 708 606 708 604 700 c 0,535,536
 601 692 601 692 599 687 c 1,537,538
 588 687 588 687 578 682 c 256,539,540
 568 677 568 677 562 667 c 0,541,542
 560 665 560 665 558 661 c 0,543,544
 557 659 557 659 557 658 c 0,545,546
 547 641 547 641 543 637 c 0,547,548
 541 634 541 634 535 628 c 0,549,550
 525 617 525 617 520 611 c 1,551,552
 522 626 522 626 518 637 c 0,553,554
 513 650 513 650 496 671 c 0,555,556
 492 675 492 675 491 677 c 0,557,558
 492 680 492 680 492 682 c 2,559,-1
 494 684 l 1,560,-1
 494 686 l 1,561,562
 498 703 498 703 491 718 c 2,563,-1
 489 721 l 1,564,-1
 487 724 l 2,565,566
 484 726 484 726 481 730 c 0,567,568
 478 733 478 733 478 733 c 2,569,570
 477 739 477 739 477 741 c 2,571,-1
 477 767 l 1,572,-1
 477 769 l 2,573,574
 477 772 477 772 476 782 c 0,575,576
 475 794 475 794 474 801 c 1,427,-1
489 680 m 1,577,-1
 489 679 l 1,578,-1
 489 680 l 1,577,-1
900 684 m 1,579,580
 893 678 893 678 879 668 c 0,581,582
 856 653 856 653 852 649 c 0,583,584
 843 639 843 639 836 622 c 0,585,586
 832 614 832 614 828 610 c 2,587,-1
 827 609 l 1,588,-1
 826 608 l 2,589,590
 821 605 821 605 809 601 c 1,591,-1
 808 600 l 1,592,-1
 807 600 l 1,593,594
 780 590 780 590 776 587 c 0,595,596
 763 579 763 579 755 565 c 2,597,-1
 748 555 l 1,598,-1
 747 554 l 1,599,-1
 746 552 l 2,600,601
 744 551 744 551 736 548 c 0,602,603
 735 547 735 547 734 547 c 0,604,605
 704 534 704 534 702 532 c 0,606,607
 686 524 686 524 677 512 c 1,608,-1
 676 509 l 1,609,-1
 675 506 l 2,610,611
 667 485 667 485 687 468 c 0,612,613
 690 466 690 466 692 465 c 0,614,615
 697 462 697 462 703.5 459.5 c 128,-1,616
 710 457 710 457 713 456.5 c 128,-1,617
 716 456 716 456 725 455.5 c 128,-1,618
 734 455 734 455 734 455 c 2,619,620
 740 454 740 454 750 453 c 0,621,622
 764 452 764 452 768 451 c 256,623,624
 772 450 772 450 790 441 c 0,625,626
 811 430 811 430 829 430 c 0,627,628
 836 430 836 430 871 434 c 0,629,630
 887 436 887 436 896 435 c 0,631,632
 908 432 908 432 913 430 c 0,633,634
 925 426 925 426 942 424 c 0,635,636
 948 423 948 423 974 423 c 2,637,-1
 976 423 l 1,638,-1
 978 424 l 1,639,-1
 989 426 l 2,640,641
 999 426 999 426 1003 425 c 1,642,-1
 1012 472 l 1,643,644
 1002 474 1002 474 989 474 c 0,645,646
 983 473 983 473 971 471 c 0,647,648
 949 471 949 471 948 471 c 0,649,650
 936 473 936 473 931 475 c 0,651,652
 920 479 920 479 904 482 c 0,653,654
 887 484 887 484 866 482 c 0,655,656
 830 478 830 478 829 478 c 0,657,658
 821 478 821 478 811 483 c 0,659,660
 786 496 786 496 779 497 c 0,661,662
 768 500 768 500 750 501 c 1,663,664
 751 502 751 502 753 503 c 0,665,666
 770 510 770 510 777 517 c 0,667,668
 785 523 785 523 794 538 c 1,669,-1
 795 539 l 1,670,-1
 796 541 l 2,671,672
 799 545 799 545 801 547 c 0,673,674
 804 548 804 548 823 555 c 0,675,676
 847 563 847 563 859 574 c 0,677,678
 873 586 873 586 880 604 c 0,679,680
 884 613 884 613 886 615 c 256,681,682
 888 617 888 617 905 629 c 0,683,684
 923 641 923 641 930 646 c 1,685,-1
 900 684 l 1,579,580
EndSplineSet
EndChar

StartChar: Aacute
Encoding: 193 193 34
Width: 1024
GlyphClass: 2
Flags: W
LayerCount: 2
Fore
SplineSet
190 715 m 1,0,-1
 845 715 l 1,1,-1
 536 181 l 1,2,-1
 190 715 l 1,0,-1
1024 819 m 1,3,-1
 0 819 l 1,4,-1
 541 -17 l 1,5,-1
 1024 819 l 1,3,-1
EndSplineSet
EndChar

StartChar: Acircumflex
Encoding: 194 194 35
Width: 1024
GlyphClass: 2
Flags: W
LayerCount: 2
Fore
SplineSet
190 88 m 1,0,-1
 536 622 l 1,1,-1
 845 88 l 1,2,-1
 190 88 l 1,0,-1
0 -15 m 1,3,-1
 1024 -15 l 1,4,-1
 541 820 l 1,5,-1
 0 -15 l 1,3,-1
EndSplineSet
EndChar

StartChar: Atilde
Encoding: 195 195 36
Width: 1024
GlyphClass: 2
Flags: W
LayerCount: 2
Fore
SplineSet
0 819 m 1,0,-1
 0 741 l 1,1,-1
 193 741 l 1,2,-1
 306 412 l 1,3,-1
 424 741 l 1,4,-1
 590 741 l 1,5,-1
 701 415 l 1,6,-1
 825 738 l 1,7,-1
 1024 738 l 1,8,-1
 1024 816 l 1,9,-1
 772 816 l 1,10,-1
 706 644 l 1,11,-1
 646 819 l 1,12,-1
 369 819 l 1,13,-1
 308 647 l 1,14,-1
 249 819 l 1,15,-1
 0 819 l 1,0,-1
EndSplineSet
EndChar

StartChar: Adieresis
Encoding: 196 196 37
Width: 1024
GlyphClass: 2
Flags: W
LayerCount: 2
Fore
SplineSet
319 819 m 0,0,1
 366 817 366 817 391 787 c 0,2,3
 414 759 414 759 410 718 c 1,4,5
 427 733 427 733 427 733 c 2,6,7
 500 794 500 794 573 813 c 0,8,9
 658 833 658 833 698 787 c 0,10,11
 720 759 720 759 717 718 c 1,12,13
 733 733 733 733 733 733 c 1,14,15
 806 794 806 794 880 813 c 0,16,17
 965 833 965 833 1004 787 c 0,18,19
 1043 740 1043 740 1007 661 c 0,20,21
 975 591 975 591 904 530 c 0,22,23
 830 469 830 469 757 451 c 0,24,25
 672 430 672 430 633 476 c 0,26,27
 610 504 610 504 614 546 c 1,28,29
 612 544 612 544 608 540 c 0,30,31
 601 533 601 533 597 530 c 0,32,33
 524 469 524 469 451 451 c 0,34,35
 366 430 366 430 326 476 c 0,36,37
 304 504 304 504 307 546 c 1,38,39
 291 530 291 530 291 530 c 1,40,41
 218 469 218 469 144 451 c 0,42,43
 59 430 59 430 20 476 c 0,44,45
 -18 523 -18 523 17 603 c 0,46,47
 49 672 49 672 121 733 c 0,48,49
 194 794 194 794 267 813 c 0,50,51
 296 820 296 820 319 819 c 0,0,1
612 760 m 0,52,53
 600 758 600 758 588 755 c 0,54,55
 527 739 527 739 465 688 c 0,56,57
 403 635 403 635 377 579 c 0,58,59
 357 533 357 533 372 514 c 0,60,61
 389 496 389 496 436 508 c 0,62,63
 497 524 497 524 559 576 c 256,64,65
 621 628 621 628 647 685 c 0,66,67
 667 731 667 731 652 749 c 0,68,69
 641 761 641 761 612 760 c 0,52,53
918 760 m 0,70,71
 906 758 906 758 894 755 c 0,72,73
 833 739 833 739 771 688 c 0,74,75
 709 635 709 635 683 579 c 0,76,77
 663 533 663 533 678 514 c 0,78,79
 695 496 695 496 743 508 c 0,80,81
 804 524 804 524 866 576 c 256,82,83
 928 628 928 628 953 685 c 0,84,85
 974 731 974 731 959 749 c 0,86,87
 947 761 947 761 918 760 c 0,70,71
305 760 m 0,88,89
 294 758 294 758 281 755 c 0,90,91
 220 739 220 739 159 688 c 0,92,93
 96 635 96 635 71 579 c 0,94,95
 51 533 51 533 65 514 c 0,96,97
 82 496 82 496 130 508 c 0,98,99
 191 524 191 524 253 576 c 256,100,101
 315 628 315 628 341 685 c 0,102,103
 361 731 361 731 346 749 c 0,104,105
 334 761 334 761 305 760 c 0,88,89
EndSplineSet
EndChar

StartChar: Aring
Encoding: 197 197 38
Width: 1024
GlyphClass: 2
Flags: W
LayerCount: 2
Fore
SplineSet
239 -105 m 1,0,-1
 57 94 l 1,1,-1
 785 761 l 1,2,-1
 967 563 l 1,3,-1
 239 -105 l 1,0,-1
0 96 m 1,4,-1
 237 -162 l 1,5,-1
 1024 560 l 1,6,-1
 788 818 l 1,7,-1
 0 96 l 1,4,-1
EndSplineSet
EndChar

StartChar: AE
Encoding: 198 198 39
Width: 1024
GlyphClass: 2
Flags: W
LayerCount: 2
Fore
SplineSet
0 819 m 1,0,-1
 0 758 l 1,1,-1
 1024 758 l 1,2,-1
 1024 819 l 1,3,-1
 0 819 l 1,0,-1
0 677 m 1,4,-1
 0 616 l 1,5,-1
 1024 616 l 1,6,-1
 1024 677 l 1,7,-1
 0 677 l 1,4,-1
0 531 m 1,8,-1
 0 470 l 1,9,-1
 1024 470 l 1,10,-1
 1024 531 l 1,11,-1
 0 531 l 1,8,-1
EndSplineSet
EndChar

StartChar: Ccedilla
Encoding: 199 199 40
Width: 1024
GlyphClass: 2
Flags: W
LayerCount: 2
Fore
SplineSet
8 782 m 1,0,-1
 3 782 l 1,1,2
 2 791 2 791 1 802 c 0,3,4
 0 810 0 810 1 810 c 2,5,-1
 3 808 l 2,6,7
 6 806 6 806 18 793 c 0,8,9
 37 773 37 773 49 762 c 0,10,11
 88 726 88 726 141 699 c 0,12,13
 200 667 200 667 260 649 c 0,14,15
 321 631 321 631 386 622 c 0,16,17
 440 613 440 613 495 610 c 0,18,19
 553 607 553 607 614 610 c 256,20,21
 675 613 675 613 733 626 c 0,22,23
 786 638 786 638 843 665 c 0,24,25
 893 688 893 688 931 720 c 0,26,27
 959 743 959 743 977 773 c 0,28,29
 982 782 982 782 991 807 c 0,30,31
 996 819 996 819 999 820 c 0,32,33
 1001 820 1001 820 1004 817 c 0,34,35
 1013 804 1013 804 1020 769 c 0,36,37
 1025 737 1025 737 1023 709 c 0,38,39
 1020 671 1020 671 1007 642 c 0,40,41
 990 603 990 603 961 566 c 0,42,43
 930 524 930 524 887 493 c 0,44,45
 842 460 842 460 791 438 c 0,46,47
 735 413 735 413 685 404 c 0,48,49
 619 393 619 393 538 396 c 0,50,51
 438 399 438 399 352 420 c 0,52,53
 261 441 261 441 180 488 c 0,54,55
 109 533 109 533 67 583 c 0,56,57
 27 632 27 632 17 681 c 0,58,59
 14 698 14 698 8 782 c 1,0,-1
EndSplineSet
EndChar

StartChar: Egrave
Encoding: 200 200 41
Width: 1024
GlyphClass: 2
Flags: W
LayerCount: 2
Fore
SplineSet
492 819 m 0,0,1
 511 819 511 819 531 818 c 0,2,3
 613 811 613 811 689 783 c 1,4,-1
 690 783 l 1,5,6
 711 775 711 775 787 734 c 0,7,8
 796 729 796 729 803 726 c 2,9,-1
 804 726 l 1,10,-1
 804 725 l 1,11,12
 843 706 843 706 904 686 c 0,13,14
 917 681 917 681 938 675 c 0,15,16
 963 667 963 667 973 663 c 1,17,-1
 974 663 l 1,18,19
 1008 651 1008 651 1024 645 c 1,20,-1
 1000 587 l 1,21,22
 985 593 985 593 953 604 c 1,23,-1
 952 604 l 2,24,25
 945 607 945 607 899 621 c 1,26,27
 846 587 846 587 806 568 c 0,28,29
 742 537 742 537 660 525 c 0,30,31
 548 508 548 508 451 512 c 0,32,33
 335 516 335 516 272 551 c 0,34,35
 224 576 224 576 166 638 c 0,36,37
 164 638 164 638 161 637 c 0,38,39
 156 635 156 635 154 635 c 0,40,41
 116 624 116 624 6 614 c 1,42,-1
 0 676 l 1,43,44
 106 686 106 686 138 695 c 0,45,46
 173 705 173 705 244 744 c 1,47,-1
 245 744 l 1,48,49
 328 787 328 787 379 803 c 0,50,51
 433 819 433 819 492 819 c 0,0,1
492 757 m 0,52,53
 442 756 442 756 397 743 c 0,54,55
 351 728 351 728 274 688 c 0,56,57
 250 675 250 675 228 664 c 1,58,59
 269 623 269 623 301 606 c 1,60,-1
 302 606 l 1,61,62
 353 578 353 578 453 574 c 0,63,64
 546 571 546 571 651 587 c 0,65,66
 724 598 724 598 779 624 c 0,67,68
 800 634 800 634 824 648 c 1,69,70
 793 661 793 661 776 669 c 0,71,72
 761 677 761 677 733 692 c 0,73,74
 691 715 691 715 667 725 c 0,75,76
 598 750 598 750 526 755 c 0,77,78
 508 757 508 757 492 757 c 0,52,53
362 660 m 1,79,-1
 376 676 l 1,80,-1
 390 660 l 1,81,-1
 376 643 l 1,82,-1
 362 660 l 1,79,-1
425 660 m 0,83,84
 425 692 425 692 393 703 c 0,85,86
 384 706 384 706 376 706 c 0,87,88
 345 706 345 706 332 681 c 0,89,90
 327 670 327 670 327 660 c 0,91,92
 327 628 327 628 359 616 c 0,93,94
 368 614 368 614 376 613 c 0,95,96
 406 613 406 613 420 639 c 0,97,98
 424 649 424 649 425 660 c 0,83,84
515 660 m 1,99,-1
 529 676 l 1,100,-1
 543 660 l 1,101,-1
 529 643 l 1,102,-1
 515 660 l 1,99,-1
578 660 m 0,103,104
 578 692 578 692 546 703 c 0,105,106
 537 706 537 706 529 706 c 0,107,108
 498 706 498 706 485 681 c 0,109,110
 480 670 480 670 480 660 c 0,111,112
 480 628 480 628 512 616 c 0,113,114
 521 614 521 614 529 613 c 0,115,116
 559 613 559 613 573 639 c 0,117,118
 577 649 577 649 578 660 c 0,103,104
640 660 m 1,119,-1
 654 676 l 1,120,-1
 668 660 l 1,121,-1
 654 643 l 1,122,-1
 640 660 l 1,119,-1
703 660 m 0,123,124
 703 692 703 692 671 703 c 0,125,126
 662 706 662 706 654 706 c 0,127,128
 624 706 624 706 610 681 c 0,129,130
 606 670 606 670 605 660 c 0,131,132
 605 628 605 628 637 616 c 0,133,134
 646 614 646 614 654 613 c 0,135,136
 685 613 685 613 698 639 c 0,137,138
 703 649 703 649 703 660 c 0,123,124
EndSplineSet
EndChar

StartChar: Eacute
Encoding: 201 201 42
Width: 1024
GlyphClass: 2
Flags: W
LayerCount: 2
Fore
SplineSet
1024 772 m 1,0,1
 977 786 977 786 943 787 c 0,2,3
 896 786 896 786 858 773 c 0,4,5
 826 761 826 761 774 728 c 0,6,7
 723 696 723 696 693 690 c 0,8,9
 660 683 660 683 631 697 c 0,10,11
 611 707 611 707 576 742 c 0,12,13
 532 786 532 786 509 799 c 0,14,15
 475 818 475 818 438 819 c 0,16,17
 403 818 403 818 360 803 c 0,18,19
 321 789 321 789 228 738 c 1,20,-1
 253 693 l 1,21,22
 343 744 343 744 376 755 c 0,23,24
 412 768 412 768 438 768 c 0,25,26
 455 768 455 768 469 763 c 0,27,28
 494 753 494 753 541 706 c 0,29,30
 583 664 583 664 609 651 c 0,31,32
 653 630 653 630 703 640 c 0,33,34
 741 648 741 648 812 692 c 0,35,36
 853 717 853 717 875 725 c 0,37,38
 906 736 906 736 943 736 c 0,39,40
 970 736 970 736 1009 724 c 1,41,-1
 1024 772 l 1,0,1
798 613 m 1,42,43
 752 627 752 627 716 628 c 0,44,45
 669 627 669 627 631 614 c 0,46,47
 626 612 626 612 621 610 c 128,-1,48
 616 608 616 608 610.5 605.5 c 128,-1,49
 605 603 605 603 601.5 601 c 128,-1,50
 598 599 598 599 591.5 595.5 c 128,-1,51
 585 592 585 592 583 591 c 128,-1,52
 581 590 581 590 573.5 585.5 c 128,-1,53
 566 581 566 581 565 580.5 c 128,-1,54
 564 580 564 580 555.5 574.5 c 128,-1,55
 547 569 547 569 547 569 c 2,56,57
 499 539 499 539 466 531 c 0,58,59
 433 524 433 524 404 538 c 0,60,61
 383 548 383 548 348 583 c 0,62,63
 304 627 304 627 281 640 c 0,64,65
 247 659 247 659 210 660 c 0,66,67
 175 659 175 659 132 644 c 0,68,69
 93 630 93 630 0 579 c 1,70,-1
 25 534 l 1,71,72
 115 585 115 585 148 596 c 0,73,74
 184 609 184 609 210 609 c 0,75,76
 227 609 227 609 241 604 c 0,77,78
 266 594 266 594 313 547 c 0,79,80
 355 505 355 505 382 492 c 0,81,82
 428 470 428 470 477 481 c 0,83,84
 520 492 520 492 579 529 c 0,85,86
 624 557 624 557 648 566 c 0,87,88
 679 577 679 577 716 577 c 0,89,90
 745 577 745 577 783 565 c 1,91,-1
 798 613 l 1,42,43
EndSplineSet
EndChar

StartChar: Ecircumflex
Encoding: 202 202 43
Width: 1024
GlyphClass: 2
Flags: W
LayerCount: 2
Fore
SplineSet
785 793 m 1,0,-1
 836 721 l 1,1,-1
 693 621 l 1,2,-1
 643 692 l 1,3,-1
 785 793 l 1,0,-1
571 642 m 1,4,-1
 621 571 l 1,5,-1
 479 470 l 1,6,-1
 428 542 l 1,7,-1
 571 642 l 1,4,-1
357 492 m 1,8,-1
 407 420 l 1,9,-1
 264 320 l 1,10,-1
 214 391 l 1,11,-1
 357 492 l 1,8,-1
143 341 m 1,12,-1
 193 270 l 1,13,-1
 50 169 l 1,14,-1
 0 241 l 1,15,-1
 143 341 l 1,12,-1
937 629 m 1,16,-1
 987 557 l 1,17,-1
 845 457 l 1,18,-1
 794 528 l 1,19,-1
 937 629 l 1,16,-1
723 478 m 1,20,-1
 773 407 l 1,21,-1
 630 306 l 1,22,-1
 580 378 l 1,23,-1
 723 478 l 1,20,-1
509 328 m 1,24,-1
 559 256 l 1,25,-1
 416 156 l 1,26,-1
 366 227 l 1,27,-1
 509 328 l 1,24,-1
295 177 m 1,28,-1
 345 106 l 1,29,-1
 202 5 l 1,30,-1
 152 77 l 1,31,-1
 295 177 l 1,28,-1
EndSplineSet
EndChar

StartChar: Edieresis
Encoding: 203 203 44
Width: 1024
GlyphClass: 2
Flags: W
LayerCount: 2
Fore
SplineSet
1003 391 m 1,0,-1
 21 391 l 1,1,-1
 21 798 l 1,2,-1
 1003 798 l 1,3,-1
 1003 391 l 1,0,-1
0 370 m 1,4,-1
 1024 370 l 1,5,-1
 1024 819 l 1,6,-1
 0 819 l 1,7,-1
 0 370 l 1,4,-1
EndSplineSet
EndChar

StartChar: Igrave
Encoding: 204 204 45
Width: 1024
GlyphClass: 2
Flags: W
LayerCount: 2
Fore
SplineSet
0 798 m 1,0,-1
 0 700 l 1,1,-1
 312 700 l 1,2,3
 312 696 312 696 311 687 c 0,4,5
 311 676 311 676 311 671 c 0,6,7
 311 640 311 640 315 613 c 0,8,9
 332 514 332 514 380 457 c 0,10,11
 430 394 430 394 506 375 c 0,12,13
 571 361 571 361 630 397 c 0,14,15
 686 432 686 432 714 495 c 0,16,17
 741 551 741 551 757 637 c 0,18,19
 760 651 760 651 763 675 c 0,20,21
 768 706 768 706 771 718 c 1,22,23
 821 722 821 722 1024 722 c 1,24,-1
 1024 819 l 1,25,26
 816 819 816 819 764 815 c 0,27,28
 736 813 736 813 722 809 c 0,29,30
 700 803 700 803 688 791 c 0,31,32
 672 774 672 774 668 737 c 1,33,34
 668 691 668 691 662 655 c 0,35,36
 647 581 647 581 626 537 c 0,37,38
 608 498 608 498 579 480 c 0,39,40
 559 468 559 468 528 470 c 1,41,42
 485 481 485 481 456 517 c 0,43,44
 441 535 441 535 430 560 c 0,45,46
 418 592 418 592 411 629 c 0,47,48
 408 649 408 649 408 671 c 0,49,50
 408 688 408 688 412 739 c 0,51,52
 412 752 412 752 408 762 c 0,53,54
 403 775 403 775 380 790 c 0,55,56
 379 791 379 791 378 792 c 0,57,58
 368 796 368 796 356 797 c 2,59,-1
 355 797 l 2,60,61
 347 798 347 798 307 798 c 2,62,-1
 306 798 l 1,63,-1
 305 798 l 1,64,-1
 0 798 l 1,0,-1
EndSplineSet
EndChar

StartChar: Iacute
Encoding: 205 205 46
Width: 1024
GlyphClass: 2
Flags: W
LayerCount: 2
Fore
SplineSet
516 726 m 0,0,1
 516 729 516 729 516.5 732.5 c 128,-1,2
 517 736 517 736 517.5 738.5 c 128,-1,3
 518 741 518 741 518 743 c 128,-1,4
 518 745 518 745 518.5 746 c 128,-1,5
 519 747 519 747 519 747 c 1,6,7
 524 747 524 747 583 650 c 0,8,9
 595 631 595 631 598 626 c 0,10,11
 613 590 613 590 613 547 c 0,12,13
 612 504 612 504 593 483 c 0,14,15
 579 469 579 469 558 466 c 0,16,17
 502 457 502 457 466 476 c 0,18,19
 455 482 455 482 452 489 c 0,20,21
 438 530 438 530 476 617 c 0,22,23
 513 699 513 699 516 726 c 0,0,1
1 447 m 1,24,-1
 0 480 l 1,25,-1
 210 480 l 1,26,-1
 420 480 l 1,27,-1
 425 469 l 2,28,29
 445 431 445 431 526 431 c 0,30,31
 581 431 581 431 602 447 c 0,32,33
 610 453 610 453 617 460 c 2,34,-1
 637 480 l 1,35,-1
 829 480 l 1,36,-1
 1021 480 l 1,37,-1
 1021 446 l 1,38,-1
 1021 411 l 1,39,-1
 511 412 l 1,40,-1
 2 413 l 1,41,-1
 1 447 l 1,24,-1
EndSplineSet
EndChar

StartChar: Icircumflex
Encoding: 206 206 47
Width: 1024
GlyphClass: 2
Flags: W
LayerCount: 2
Fore
SplineSet
0 537 m 1,0,-1
 22 463 l 1,1,-1
 970 745 l 1,2,-1
 948 819 l 1,3,-1
 0 537 l 1,0,-1
51 415 m 1,4,-1
 61 338 l 1,5,-1
 1024 460 l 1,6,-1
 1014 537 l 1,7,-1
 51 415 l 1,4,-1
EndSplineSet
EndChar

StartChar: Idieresis
Encoding: 207 207 48
Width: 1024
GlyphClass: 2
Flags: W
LayerCount: 2
Fore
SplineSet
0 569 m 1,0,1
 24 569 24 569 72 568 c 0,2,3
 115 568 115 568 136 568 c 0,4,5
 151 568 151 568 156 568 c 0,6,7
 168 569 168 569 175 572 c 0,8,9
 183 576 183 576 189 581 c 0,10,11
 195 587 195 587 200 609 c 0,12,13
 200 611 200 611 200 612 c 0,14,15
 200 615 200 615 203 648 c 0,16,17
 203 650 203 650 203 650 c 1,18,19
 209 689 209 689 214 705 c 0,20,21
 223 722 223 722 236 732 c 0,22,23
 252 744 252 744 269 745 c 0,24,25
 282 745 282 745 299 739 c 0,26,27
 312 734 312 734 319 726 c 0,28,29
 334 706 334 706 343 685 c 0,30,31
 352 658 352 658 354 605 c 0,32,33
 357 594 357 594 363 587 c 0,34,35
 373 577 373 577 387 574 c 0,36,37
 395 573 395 573 405 572 c 0,38,39
 414 572 414 572 438 572 c 2,40,-1
 635 572 l 2,41,42
 662 572 662 572 671 573 c 0,43,44
 686 574 686 574 694 577 c 0,45,46
 710 583 710 583 722 616 c 0,47,48
 723 617 723 617 723 618 c 0,49,50
 726 647 726 647 733 675 c 0,51,52
 740 696 740 696 753 713 c 0,53,54
 769 732 769 732 780 738 c 0,55,56
 792 743 792 743 804 743 c 0,57,58
 824 741 824 741 835 734 c 0,59,60
 856 720 856 720 867 704 c 0,61,62
 876 687 876 687 878 664 c 0,63,64
 882 640 882 640 882 617 c 2,65,-1
 882 581 l 1,66,-1
 1024 581 l 1,67,-1
 1024 654 l 1,68,-1
 954 654 l 1,69,70
 952 665 952 665 950 676 c 0,71,72
 947 711 947 711 930 741 c 0,73,74
 907 775 907 775 874 796 c 0,75,76
 848 812 848 812 811 816 c 1,77,78
 772 815 772 815 748 804 c 0,79,80
 721 790 721 790 696 758 c 0,81,82
 672 728 672 728 663 694 c 0,83,84
 657 671 657 671 653 645 c 0,85,86
 651 645 651 645 646 645 c 0,87,88
 639 645 639 645 635 645 c 2,89,90
 635 645 635 645 433 648 c 0,91,92
 428 648 428 648 426 649 c 0,93,94
 423 679 423 679 411 711 c 0,95,96
 398 744 398 744 376 771 c 0,97,98
 353 797 353 797 324 808 c 0,99,100
 283 822 283 822 251 817 c 0,101,102
 222 814 222 814 191 789 c 0,103,104
 163 767 163 767 148 735 c 0,105,106
 137 706 137 706 130 661 c 0,107,108
 130 657 130 657 129 649 c 0,109,110
 129 643 129 643 129 641 c 1,111,112
 115 641 115 641 97.5 641 c 128,-1,113
 80 641 80 641 66 641.5 c 128,-1,114
 52 642 52 642 34 642 c 128,-1,115
 16 642 16 642 0 642 c 1,116,-1
 0 569 l 1,0,1
EndSplineSet
EndChar

StartChar: Eth
Encoding: 208 208 49
Width: 1024
GlyphClass: 2
Flags: W
LayerCount: 2
Fore
SplineSet
0 522 m 1,0,1
 91 498 91 498 152 500 c 0,2,3
 235 503 235 503 339 541 c 0,4,5
 422 573 422 573 508 627 c 0,6,7
 556 657 556 657 640 719 c 0,8,9
 691 756 691 756 712 760 c 0,10,11
 716 761 716 761 720 761 c 0,12,13
 734 760 734 760 750 747 c 0,14,15
 782 719 782 719 816 673 c 0,16,17
 822 665 822 665 833 649 c 0,18,19
 862 608 862 608 878 591 c 0,20,21
 913 554 913 554 951 541 c 0,22,23
 977 533 977 533 1021 530 c 1,24,-1
 1024 589 l 1,25,26
 987 591 987 591 970 596 c 0,27,28
 944 606 944 606 920 631 c 0,29,30
 912 640 912 640 863 707 c 0,31,32
 824 760 824 760 787 791 c 0,33,34
 753 819 753 819 720 819 c 0,35,36
 709 819 709 819 700 817 c 0,37,38
 666 809 666 809 606 766 c 0,39,40
 522 704 522 704 477 676 c 0,41,42
 395 625 395 625 319 596 c 0,43,44
 226 562 226 562 150 558 c 0,45,46
 94 557 94 557 15 578 c 1,47,-1
 0 522 l 1,0,1
0 366 m 1,48,49
 91 342 91 342 152 344 c 0,50,51
 235 347 235 347 339 386 c 0,52,53
 422 417 422 417 508 471 c 0,54,55
 556 501 556 501 640 563 c 0,56,57
 691 600 691 600 712 604 c 0,58,59
 716 605 716 605 720 605 c 0,60,61
 734 604 734 604 750 591 c 0,62,63
 782 563 782 563 816 517 c 0,64,65
 822 509 822 509 833 493 c 0,66,67
 862 452 862 452 878 435 c 0,68,69
 913 398 913 398 951 385 c 0,70,71
 977 377 977 377 1021 374 c 1,72,-1
 1024 433 l 1,73,74
 987 435 987 435 970 440 c 0,75,76
 944 450 944 450 920 475 c 0,77,78
 912 484 912 484 863 551 c 0,79,80
 824 604 824 604 787 635 c 0,81,82
 753 663 753 663 720 663 c 0,83,84
 709 663 709 663 700 661 c 0,85,86
 666 654 666 654 606 610 c 0,87,88
 522 548 522 548 477 520 c 0,89,90
 395 469 395 469 319 440 c 0,91,92
 226 406 226 406 150 402 c 0,93,94
 94 401 94 401 15 422 c 1,95,-1
 0 366 l 1,48,49
EndSplineSet
EndChar

StartChar: Ntilde
Encoding: 209 209 50
Width: 1024
GlyphClass: 2
Flags: W
LayerCount: 2
Fore
SplineSet
818 819 m 1,0,-1
 824 790 l 1,1,-1
 835 790 l 1,2,-1
 835 651 l 1,3,-1
 1024 694 l 1,4,-1
 1021 489 l 1,5,-1
 968 490 l 1,6,-1
 970 627 l 1,7,-1
 656 556 l 1,8,-1
 657 417 l 1,9,-1
 604 416 l 1,10,-1
 603 544 l 1,11,-1
 395 498 l 1,12,-1
 396 383 l 1,13,-1
 343 382 l 1,14,-1
 342 486 l 1,15,-1
 193 452 l 1,16,-1
 181 504 l 1,17,-1
 249 519 l 1,18,-1
 250 655 l 1,19,-1
 10 609 l 1,20,-1
 0 661 l 1,21,-1
 818 819 l 1,0,-1
782 758 m 1,22,-1
 506 705 l 1,23,-1
 502 576 l 1,24,-1
 782 639 l 1,25,-1
 782 758 l 1,22,-1
452 694 m 1,26,-1
 303 665 l 1,27,-1
 302 531 l 1,28,-1
 449 564 l 1,29,-1
 452 694 l 1,26,-1
EndSplineSet
EndChar

StartChar: Ograve
Encoding: 210 210 51
Width: 1024
GlyphClass: 2
Flags: W
LayerCount: 2
Fore
SplineSet
988 819 m 1,0,-1
 1024 776 l 1,1,2
 919 690 919 690 871 667 c 0,3,4
 834 650 834 650 792 650 c 1,5,6
 779 628 779 628 766 612 c 0,7,8
 730 569 730 569 686 543 c 1,9,-1
 685 543 l 1,10,-1
 685 542 l 1,11,12
 622 509 622 509 547 498 c 0,13,14
 460 486 460 486 392 514 c 1,15,-1
 391 515 l 1,16,17
 343 537 343 537 284 591 c 1,18,19
 202 543 202 543 29 437 c 1,20,-1
 0 484 l 1,21,22
 197 606 197 606 274 649 c 0,23,24
 396 721 396 721 461 738 c 1,25,-1
 461 738 l 1,26,27
 533 756 533 756 617 740 c 0,28,29
 644 735 644 735 693 723 c 0,30,31
 733 713 733 713 751 710 c 1,32,-1
 751 710 l 1,33,34
 802 699 802 699 835 712 c 0,35,36
 842 715 842 715 848 718 c 0,37,38
 891 738 891 738 988 819 c 1,0,-1
541 692 m 0,39,40
 507 692 507 692 475 684 c 0,41,42
 423 670 423 670 335 620 c 1,43,44
 380 582 380 582 414 566 c 0,45,46
 468 544 468 544 539 553 c 0,47,48
 605 563 605 563 658 591 c 0,49,50
 694 613 694 613 723 647 c 0,51,52
 724 649 724 649 730 657 c 1,53,54
 713 661 713 661 677 669 c 0,55,56
 630 681 630 681 607 685 c 0,57,58
 571 692 571 692 541 692 c 0,39,40
EndSplineSet
EndChar

StartChar: Oacute
Encoding: 211 211 52
Width: 1024
GlyphClass: 2
Flags: W
LayerCount: 2
Fore
SplineSet
233 722 m 0,0,1
 284 735 284 735 350 723 c 0,2,3
 411 712 411 712 458 682 c 0,4,5
 476 671 476 671 510 646 c 0,6,7
 559 610 559 610 586 594 c 0,8,9
 669 547 669 547 740 543 c 0,10,11
 750 542 750 542 760 542 c 0,12,13
 827 542 827 542 878 580 c 0,14,15
 920 613 920 613 967 687 c 0,16,17
 985 716 985 716 1024 788 c 1,18,-1
 967 819 l 1,19,20
 928 748 928 748 912 722 c 0,21,22
 870 657 870 657 839 632 c 0,23,24
 799 603 799 603 744 608 c 0,25,26
 687 612 687 612 619 650 c 0,27,28
 608 657 608 657 524 716 c 0,29,30
 506 729 506 729 493 737 c 0,31,32
 434 774 434 774 361 787 c 0,33,34
 280 802 280 802 217 786 c 0,35,36
 148 767 148 767 95 708 c 0,37,38
 61 669 61 669 0 568 c 1,39,-1
 56 535 l 1,40,41
 115 631 115 631 144 664 c 0,42,43
 185 709 185 709 233 722 c 0,0,1
233 478 m 0,44,45
 284 491 284 491 350 479 c 0,46,47
 411 467 411 467 458 438 c 0,48,49
 476 427 476 427 510 401 c 0,50,51
 559 366 559 366 586 350 c 0,52,53
 669 303 669 303 740 298 c 0,54,55
 750 298 750 298 760 298 c 0,56,57
 827 298 827 298 878 336 c 0,58,59
 920 369 920 369 967 443 c 0,60,61
 985 472 985 472 1024 544 c 1,62,-1
 967 575 l 1,63,64
 928 503 928 503 912 478 c 0,65,66
 870 413 870 413 839 388 c 0,67,68
 799 359 799 359 744 364 c 0,69,70
 687 367 687 367 619 406 c 0,71,72
 608 413 608 413 524 472 c 0,73,74
 506 485 506 485 493 493 c 0,75,76
 434 530 434 530 361 543 c 0,77,78
 280 558 280 558 217 541 c 0,79,80
 148 523 148 523 95 464 c 0,81,82
 61 425 61 425 0 324 c 1,83,-1
 56 291 l 1,84,85
 115 387 115 387 144 420 c 0,86,87
 185 465 185 465 233 478 c 0,44,45
EndSplineSet
EndChar

StartChar: Ocircumflex
Encoding: 212 212 53
Width: 1024
GlyphClass: 2
Flags: W
LayerCount: 2
Fore
SplineSet
1003 819 m 1,0,-1
 1016 766 l 1,1,-1
 876 732 l 1,2,-1
 877 609 l 1,3,-1
 1009 639 l 1,4,-1
 1021 586 l 1,5,-1
 734 521 l 1,6,-1
 736 419 l 1,7,-1
 1013 477 l 1,8,-1
 1024 424 l 1,9,-1
 12 209 l 1,10,-1
 0 263 l 1,11,-1
 287 323 l 1,12,-1
 288 420 l 1,13,-1
 12 357 l 1,14,-1
 0 410 l 1,15,-1
 44 420 l 1,16,-1
 45 530 l 1,17,-1
 16 523 l 1,18,-1
 3 576 l 1,19,-1
 1003 819 l 1,0,-1
821 718 m 1,20,-1
 512 643 l 1,21,-1
 514 527 l 1,22,-1
 822 597 l 1,23,-1
 821 718 l 1,20,-1
458 630 m 1,24,-1
 100 543 l 1,25,-1
 99 433 l 1,26,-1
 459 515 l 1,27,-1
 458 630 l 1,24,-1
679 508 m 1,28,-1
 343 432 l 1,29,-1
 342 335 l 1,30,-1
 681 407 l 1,31,-1
 679 508 l 1,28,-1
EndSplineSet
EndChar

StartChar: Otilde
Encoding: 213 213 54
Width: 1024
GlyphClass: 2
Flags: W
LayerCount: 2
Fore
SplineSet
1024 809 m 1,0,1
 971 820 971 820 943 818 c 0,2,3
 903 816 903 816 850 790 c 0,4,5
 801 767 801 767 742 732 c 0,6,7
 673 691 673 691 631 683 c 0,8,9
 619 681 619 681 607 681 c 0,10,11
 565 682 565 682 523 704 c 0,12,13
 507 713 507 713 476 733 c 0,14,15
 424 767 424 767 397 776 c 0,16,17
 377 782 377 782 358 782 c 0,18,19
 317 781 317 781 242 748 c 0,20,21
 195 728 195 728 0 636 c 1,22,-1
 26 580 l 1,23,24
 215 669 215 669 267 691 c 0,25,26
 331 719 331 719 358 719 c 0,27,28
 369 719 369 719 378 716 c 0,29,30
 398 709 398 709 442 681 c 0,31,32
 476 658 476 658 494 649 c 0,33,34
 551 619 551 619 607 619 c 0,35,36
 625 619 625 619 642 622 c 0,37,38
 696 632 696 632 773 678 c 0,39,40
 837 715 837 715 877 734 c 0,41,42
 920 755 920 755 946 756 c 0,43,44
 967 757 967 757 1012 748 c 1,45,-1
 1024 809 l 1,0,1
1024 662 m 1,46,47
 971 673 971 673 943 671 c 0,48,49
 903 669 903 669 850 643 c 0,50,51
 801 620 801 620 742 585 c 0,52,53
 673 544 673 544 631 536 c 0,54,55
 619 534 619 534 607 534 c 0,56,57
 565 535 565 535 523 557 c 0,58,59
 507 566 507 566 476 586 c 0,60,61
 424 620 424 620 397 629 c 0,62,63
 377 635 377 635 358 635 c 0,64,65
 317 634 317 634 242 602 c 0,66,67
 195 581 195 581 0 489 c 1,68,-1
 26 433 l 1,69,70
 215 522 215 522 267 545 c 0,71,72
 331 572 331 572 358 573 c 0,73,74
 369 572 369 572 378 569 c 0,75,76
 398 562 398 562 442 534 c 0,77,78
 476 511 476 511 494 502 c 0,79,80
 551 472 551 472 607 472 c 0,81,82
 625 472 625 472 642 475 c 0,83,84
 696 485 696 485 773 531 c 0,85,86
 837 568 837 568 877 587 c 0,87,88
 920 608 920 608 946 609 c 0,89,90
 967 610 967 610 1012 601 c 1,91,-1
 1024 662 l 1,46,47
EndSplineSet
EndChar

StartChar: Odieresis
Encoding: 214 214 55
Width: 1024
GlyphClass: 2
Flags: W
LayerCount: 2
Fore
SplineSet
358 819 m 0,0,1
 388 819 388 819 423 814 c 1,2,-1
 423 814 l 1,3,4
 499 801 499 801 564 776 c 0,5,6
 576 771 576 771 679 721 c 0,7,8
 688 717 688 717 695 714 c 1,9,-1
 695 714 l 1,10,11
 753 687 753 687 805 675 c 0,12,13
 864 661 864 661 904 665 c 0,14,15
 940 668 940 668 972 681 c 1,16,-1
 973 681 l 1,17,18
 994 690 994 690 1000 693 c 1,19,-1
 1024 652 l 1,20,21
 1013 646 1013 646 991 637 c 0,22,23
 951 621 951 621 908 617 c 0,24,25
 860 613 860 613 794 628 c 0,26,27
 736 642 736 642 675 671 c 0,28,29
 659 678 659 678 625 695 c 0,30,31
 573 721 573 721 546 731 c 1,32,33
 507 699 507 699 473 678 c 0,34,35
 407 638 407 638 339 619 c 0,36,37
 257 596 257 596 190 606 c 0,38,39
 140 613 140 613 68 644 c 1,40,41
 30 615 30 615 30 615 c 1,42,-1
 0 652 l 1,43,44
 89 724 89 724 146 757 c 0,45,46
 221 801 221 801 293 814 c 0,47,48
 327 819 327 819 358 819 c 0,0,1
358 772 m 0,49,50
 331 772 331 772 302 767 c 0,51,52
 237 755 237 755 170 716 c 0,53,54
 144 701 144 701 112 678 c 1,55,56
 161 658 161 658 197 653 c 0,57,58
 255 645 255 645 326 665 c 0,59,60
 389 683 389 683 448 719 c 0,61,62
 471 733 471 733 493 749 c 1,63,64
 453 760 453 760 415 766 c 0,65,66
 383 771 383 771 358 772 c 0,49,50
EndSplineSet
EndChar

StartChar: multiply
Encoding: 215 215 56
Width: 1024
GlyphClass: 2
Flags: W
LayerCount: 2
Fore
SplineSet
267 649 m 0,0,1
 325 649 325 649 389 695 c 0,2,3
 392 697 392 697 406 708 c 0,4,5
 450 740 450 740 472 750 c 0,6,7
 504 764 504 764 535 764 c 0,8,9
 546 764 546 764 555 763 c 0,10,11
 589 756 589 756 629 727 c 0,12,13
 641 718 641 718 664 700 c 0,14,15
 687 681 687 681 698 673 c 0,16,17
 719 658 719 658 735 652 c 0,18,19
 752 647 752 647 775 647 c 0,20,21
 821 647 821 647 903 660 c 0,22,23
 906 660 906 660 1024 684 c 1,24,-1
 1013 738 l 1,25,26
 1000 735 1000 735 973 729 c 0,27,28
 922 718 922 718 894 714 c 0,29,30
 816 702 816 702 775 702 c 0,31,32
 760 702 760 702 752 705 c 0,33,34
 744 707 744 707 730 718 c 0,35,36
 721 724 721 724 702 739 c 0,37,38
 676 761 676 761 661 771 c 0,39,40
 610 808 610 808 564 817 c 0,41,42
 549 819 549 819 535 819 c 0,43,44
 490 819 490 819 450 800 c 0,45,46
 422 787 422 787 360 742 c 0,47,48
 314 709 314 709 282 705 c 0,49,50
 274 704 274 704 267 704 c 0,51,52
 240 704 240 704 169 719 c 0,53,54
 140 725 140 725 79 736 c 0,55,56
 32 745 32 745 11 750 c 1,57,-1
 0 696 l 1,58,59
 24 691 24 691 74 681 c 0,60,61
 135 670 135 670 163 664 c 0,62,63
 236 649 236 649 267 649 c 0,0,1
267 520 m 0,64,65
 325 520 325 520 389 566 c 0,66,67
 392 568 392 568 406 579 c 0,68,69
 450 611 450 611 472 621 c 0,70,71
 504 635 504 635 535 635 c 0,72,73
 546 635 546 635 555 633 c 0,74,75
 589 627 589 627 629 598 c 0,76,77
 641 589 641 589 664 570 c 0,78,79
 687 552 687 552 698 544 c 0,80,81
 719 529 719 529 735 523 c 0,82,83
 752 518 752 518 775 518 c 0,84,85
 821 518 821 518 903 530 c 0,86,87
 906 531 906 531 1024 555 c 1,88,-1
 1013 608 l 1,89,90
 1000 606 1000 606 973 600 c 0,91,92
 922 589 922 589 894 584 c 0,93,94
 816 573 816 573 775 573 c 0,95,96
 760 573 760 573 752 575 c 0,97,98
 744 578 744 578 730 588 c 0,99,100
 721 595 721 595 702 610 c 0,101,102
 676 632 676 632 661 642 c 0,103,104
 610 679 610 679 564 687 c 0,105,106
 549 690 549 690 535 690 c 0,107,108
 490 689 490 689 450 671 c 0,109,110
 422 658 422 658 360 612 c 0,111,112
 314 580 314 580 282 576 c 0,113,114
 274 575 274 575 267 575 c 0,115,116
 240 575 240 575 169 590 c 0,117,118
 140 596 140 596 79 607 c 0,119,120
 32 616 32 616 11 620 c 1,121,-1
 0 567 l 1,122,123
 24 562 24 562 74 552 c 0,124,125
 135 540 135 540 163 535 c 0,126,127
 236 520 236 520 267 520 c 0,64,65
EndSplineSet
EndChar

StartChar: Oslash
Encoding: 216 216 57
Width: 1024
GlyphClass: 2
Flags: W
LayerCount: 2
Fore
SplineSet
651 256 m 1,0,-1
 1024 256 l 1,1,-1
 1024 347 l 1,2,-1
 711 347 l 1,3,-1
 504 819 l 1,4,-1
 276 349 l 1,5,-1
 0 349 l 1,6,-1
 0 257 l 1,7,-1
 333 257 l 1,8,-1
 500 601 l 1,9,-1
 651 256 l 1,0,-1
EndSplineSet
EndChar

StartChar: Ugrave
Encoding: 217 217 58
Width: 1024
GlyphClass: 2
Flags: W
LayerCount: 2
Fore
SplineSet
0 568 m 1,0,-1
 867 568 l 1,1,-1
 700 491 l 1,2,-1
 727 433 l 1,3,-1
 1024 571 l 1,4,-1
 1011 631 l 1,5,-1
 219 631 l 1,6,-1
 434 765 l 1,7,-1
 401 819 l 1,8,-1
 0 568 l 1,0,-1
EndSplineSet
EndChar

StartChar: Uacute
Encoding: 218 218 59
Width: 1024
GlyphClass: 2
Flags: W
LayerCount: 2
Fore
SplineSet
535 820 m 0,0,1
 647 819 647 819 728 778 c 0,2,3
 794 743 794 743 815 693 c 1,4,5
 844 692 844 692 902 692 c 0,6,7
 984 691 984 691 1024 691 c 1,8,-1
 1024 610 l 1,9,10
 983 610 983 610 901 611 c 0,11,12
 843 611 843 611 814 611 c 1,13,14
 793 560 793 560 728 526 c 0,15,16
 646 485 646 485 535 485 c 0,17,18
 423 485 423 485 342 526 c 0,19,20
 274 562 274 562 254 615 c 1,21,-1
 0 615 l 1,22,-1
 0 696 l 1,23,-1
 257 696 l 1,24,25
 279 745 279 745 342 778 c 0,26,27
 423 820 423 820 535 820 c 0,0,1
535 738 m 0,28,29
 442 738 442 738 379 706 c 0,30,31
 329 680 329 680 328 652 c 0,32,33
 328 625 328 625 377 600 c 0,34,35
 378 599 378 599 379 599 c 0,36,37
 443 566 443 566 535 566 c 256,38,39
 627 566 627 566 691 599 c 0,40,41
 740 625 740 625 741 652 c 0,42,43
 741 679 741 679 693 705 c 0,44,45
 691 705 691 705 691 706 c 0,46,47
 627 738 627 738 535 738 c 0,28,29
535 649 m 1,48,-1
 532 655 l 1,49,-1
 535 662 l 1,50,-1
 538 655 l 1,51,-1
 535 649 l 1,48,-1
613 655 m 0,52,53
 612 679 612 679 594 696 c 0,54,55
 583 705 583 705 569 710 c 0,56,57
 534 721 534 721 501 710 c 0,58,59
 486 704 486 704 475 696 c 0,60,61
 457 678 457 678 457 655 c 256,62,63
 457 632 457 632 475 615 c 0,64,65
 487 606 487 606 501 601 c 0,66,67
 535 589 535 589 569 601 c 0,68,69
 584 606 584 606 594 615 c 0,70,71
 612 633 612 633 613 655 c 0,52,53
EndSplineSet
EndChar

StartChar: Ucircumflex
Encoding: 219 219 60
Width: 1024
GlyphClass: 2
Flags: W
LayerCount: 2
Fore
SplineSet
480 476 m 0,0,1
 480 500 480 500 479 568 c 0,2,3
 478 635 478 635 478 659 c 0,4,5
 478 684 478 684 480 699 c 1,6,7
 490 710 490 710 518 714 c 0,8,9
 519 714 519 714 520 714 c 0,10,11
 530 707 530 707 547 691 c 1,12,13
 552 665 552 665 552 601 c 0,14,15
 552 513 552 513 554 485 c 0,16,17
 555 447 555 447 569 415 c 0,18,19
 576 405 576 405 586 398 c 0,20,21
 597 392 597 392 625 387 c 0,22,23
 640 385 640 385 682 384 c 0,24,25
 711 383 711 383 728 382 c 0,26,27
 842 382 842 382 882 381 c 0,28,29
 908 379 908 379 916 366 c 0,30,31
 919 360 919 360 922 352 c 1,32,33
 919 331 919 331 916 325 c 1,34,35
 896 316 896 316 846 310 c 0,36,37
 816 306 816 306 743 306 c 2,38,-1
 622 306 l 2,39,40
 603 306 603 306 594 304 c 0,41,42
 570 299 570 299 556 281 c 0,43,44
 547 269 547 269 544 252 c 0,45,46
 542 241 542 241 542 226 c 0,47,48
 542 206 542 206 543 158 c 0,49,50
 544 107 544 107 544 86 c 0,51,52
 544 6 544 6 533 -25 c 1,53,54
 524 -31 524 -31 508 -34 c 1,55,56
 493 -32 493 -32 480 -18 c 1,57,58
 471 10 471 10 468 80 c 0,59,60
 468 82 468 82 468 226 c 0,61,62
 468 244 468 244 467 252 c 0,63,64
 463 272 463 272 453 285 c 0,65,66
 437 303 437 303 412 307 c 0,67,68
 411 307 411 307 376 308 c 2,69,-1
 196 308 l 2,70,71
 135 308 135 308 116 318 c 0,72,73
 111 321 111 321 106 324 c 0,74,75
 102 334 102 334 105 381 c 0,76,77
 105 382 105 382 105 383 c 2,78,-1
 159 385 l 2,79,80
 220 387 220 387 385 387 c 0,81,82
 411 387 411 387 423 389 c 0,83,84
 449 396 449 396 463 414 c 0,85,86
 473 428 473 428 477 445 c 0,87,88
 479 456 479 456 480 476 c 0,0,1
2 389 m 0,89,90
 -1 362 -1 362 3 324 c 1,91,92
 14 276 14 276 31 255 c 0,93,94
 57 224 57 224 97 214 c 0,95,96
 136 204 136 204 164 207 c 0,97,98
 180 208 180 208 196 208 c 2,99,100
 196 208 196 208 313 204 c 0,101,102
 367 200 367 200 368 192 c 0,103,104
 367 113 367 113 368 76 c 0,105,106
 372 -10 372 -10 385 -50 c 0,107,108
 393 -74 393 -74 406 -91 c 0,109,110
 424 -113 424 -113 451 -123 c 0,111,112
 495 -139 495 -139 535 -131 c 0,113,114
 570 -123 570 -123 604 -95 c 0,115,116
 619 -80 619 -80 627 -65 c 0,117,118
 636 -48 636 -48 640 -27 c 0,119,120
 647 14 647 14 645 63 c 0,121,122
 644 75 644 75 644 86 c 0,123,124
 644 114 644 114 643 173 c 0,125,126
 643 179 643 179 643 191 c 0,127,128
 643 202 643 202 643 206 c 1,129,-1
 743 206 l 2,130,131
 824 206 824 206 859 211 c 0,132,133
 891 215 891 215 915 220 c 0,134,135
 966 232 966 232 989 255 c 0,136,137
 1005 270 1005 270 1012 292 c 0,138,139
 1017 308 1017 308 1022 345 c 0,140,141
 1027 380 1027 380 1018 406 c 0,142,143
 1005 443 1005 443 971 463 c 0,144,145
 941 478 941 478 887 481 c 0,146,147
 845 483 845 483 732 483 c 0,148,149
 714 483 714 483 685 484 c 0,150,151
 664 485 664 485 654 492 c 1,152,153
 652 518 652 518 652 601 c 0,154,155
 652 677 652 677 645 710 c 0,156,157
 641 731 641 731 633 745 c 0,158,159
 624 759 624 759 604 775 c 0,160,161
 587 790 587 790 576 797 c 0,162,163
 559 808 559 808 537 816 c 0,164,165
 524 818 524 818 512 819 c 0,166,167
 482 818 482 818 448 801 c 0,168,169
 419 783 419 783 399 758 c 256,170,171
 379 733 379 733 378 677 c 0,172,173
 378 670 378 670 378 659 c 0,174,175
 378 633 378 633 379 564 c 0,176,177
 379 504 379 504 372 487 c 1,178,179
 218 487 218 487 152 484 c 0,180,181
 72 479 72 479 34 454 c 1,182,183
 8 426 8 426 2 389 c 0,89,90
EndSplineSet
EndChar

StartChar: Udieresis
Encoding: 220 220 61
Width: 1024
GlyphClass: 2
Flags: W
LayerCount: 2
Fore
SplineSet
248 692 m 0,0,1
 260 692 260 692 265 692 c 0,2,3
 277 691 277 691 284 687 c 0,4,5
 293 683 293 683 299 674 c 0,6,7
 311 659 311 659 324 647 c 2,8,-1
 325 646 l 2,9,10
 332 640 332 640 352.5 621.5 c 128,-1,11
 373 603 373 603 384 593 c 1,12,-1
 384 592 l 1,13,14
 429 554 429 554 446 545 c 0,15,16
 450 543 450 543 457 540 c 2,17,-1
 458 540 l 1,18,19
 482 531 482 531 510 533 c 0,20,21
 557 538 557 538 596 555 c 0,22,23
 623 568 623 568 662 599 c 0,24,25
 672 606 672 606 688 620 c 0,26,27
 703 632 703 632 709 637 c 2,28,-1
 710 638 l 1,29,30
 729 651 729 651 759 663 c 0,31,32
 792 677 792 677 828 683 c 1,33,-1
 828 683 l 1,34,35
 865 689 865 689 915 689 c 2,36,-1
 993 689 l 1,37,-1
 1024 689 l 1,38,-1
 1024 621 l 1,39,-1
 993 621 l 1,40,-1
 915 621 l 2,41,42
 870 621 870 621 840 616 c 0,43,44
 838 615 838 615 827 613 c 1,45,46
 836 613 836 613 871 611 c 2,47,-1
 1024 611 l 1,48,-1
 1024 543 l 1,49,-1
 870 543 l 2,50,51
 801 545 801 545 787 543 c 2,52,-1
 785 543 l 1,53,-1
 784 543 l 2,54,55
 768 542 768 542 747 533 c 0,56,57
 708 517 708 517 705 516 c 0,58,59
 665 498 665 498 653 494 c 1,60,-1
 652 494 l 1,61,-1
 651 493 l 1,62,63
 629 488 629 488 605 485 c 1,64,65
 561 469 561 469 516 465 c 0,66,67
 478 462 478 462 443 473 c 1,68,69
 407 476 407 476 384 481 c 0,70,71
 348 490 348 490 313 509 c 0,72,73
 300 516 300 516 273 536 c 1,74,-1
 272 536 l 2,75,76
 264 536 264 536 230 536 c 2,77,-1
 1 536 l 1,78,-1
 1 605 l 1,79,-1
 230 605 l 2,80,81
 260 604 260 604 271 604 c 1,82,83
 257 618 257 618 252 624 c 0,84,85
 250 624 250 624 223 624 c 2,86,-1
 0 624 l 1,87,-1
 0 692 l 1,88,-1
 223 692 l 2,89,90
 227 692 227 692 248 692 c 0,0,1
633 715 m 0,91,92
 634 698 634 698 624 679 c 0,93,94
 612 655 612 655 593 638 c 0,95,96
 567 616 567 616 532 616 c 0,97,98
 519 616 519 616 506 621 c 0,99,100
 497 625 497 625 491 635 c 0,101,102
 484 650 484 650 485 663 c 0,103,104
 487 685 487 685 499 702 c 0,105,106
 514 724 514 724 540 736 c 0,107,108
 568 748 568 748 596 748 c 0,109,110
 600 748 600 748 614 747 c 0,111,112
 619 745 619 745 621 742 c 0,113,114
 632 727 632 727 633 715 c 0,91,92
417 669 m 0,115,116
 415 635 415 635 430 604 c 0,117,118
 449 569 449 569 483 556 c 0,119,120
 518 542 518 542 563 550 c 0,121,122
 607 559 607 559 638 587 c 0,123,124
 667 612 667 612 685 648 c 0,125,126
 704 684 704 684 701 721 c 0,127,128
 698 754 698 754 675 784 c 0,129,130
 650 814 650 814 607 818 c 2,131,-1
 591 819 l 1,132,-1
 589 816 l 1,133,134
 549 814 549 814 513 798 c 0,135,136
 467 777 467 777 442 740 c 0,137,138
 420 707 420 707 417 669 c 0,115,116
EndSplineSet
EndChar

StartChar: Yacute
Encoding: 221 221 62
Width: 1024
GlyphClass: 2
Flags: W
LayerCount: 2
Fore
SplineSet
413 700 m 0,0,1
 487 809 487 809 491 811 c 0,2,3
 496 810 496 810 554 768 c 2,4,-1
 616 725 l 1,5,-1
 574 667 l 2,6,7
 536 609 536 609 478 527 c 2,8,-1
 423 447 l 1,9,-1
 445 419 l 2,10,11
 543 291 543 291 602 151 c 0,12,13
 620 110 620 110 627 80 c 0,14,15
 678 -113 678 -113 502 -173 c 0,16,17
 417 -201 417 -201 285 -195 c 0,18,19
 89 -186 89 -186 39 -100 c 0,20,21
 21 -69 21 -69 18 -29 c 0,22,23
 10 58 10 58 100 220 c 0,24,25
 131 274 131 274 175 344 c 0,26,27
 231 433 231 433 229 442 c 0,28,29
 225 452 225 452 118 564 c 0,30,31
 9 677 9 677 8 687 c 0,32,33
 9 696 9 696 59 742 c 2,34,-1
 112 789 l 1,35,-1
 218 679 l 2,36,37
 323 570 323 570 330 579 c 0,38,39
 331 580 331 580 342 597 c 0,40,41
 384 658 384 658 413 700 c 0,0,1
404 207 m 0,42,43
 365 273 365 273 348 295 c 2,44,-1
 333 312 l 1,45,-1
 282 229 l 2,46,47
 179 61 179 61 172 3 c 2,48,-1
 168 -26 l 1,49,-1
 209 -36 l 2,50,51
 266 -49 266 -49 392 -40 c 0,52,53
 448 -35 448 -35 464 -28 c 1,54,55
 484 -12 484 -12 485 7 c 0,56,57
 485 63 485 63 418 183 c 0,58,59
 411 196 411 196 404 207 c 0,42,43
EndSplineSet
EndChar

StartChar: Thorn
Encoding: 222 222 63
Width: 1024
GlyphClass: 2
Flags: W
LayerCount: 2
Fore
SplineSet
591 820 m 0,0,1
 612 819 612 819 632 818 c 0,2,3
 717 814 717 814 761 777 c 1,4,-1
 762 776 l 2,5,6
 802 738 802 738 824 653 c 1,7,-1
 824 652 l 1,8,-1
 824 650 l 1,9,10
 828 634 828 634 833 600 c 0,11,12
 837 580 837 580 839 570 c 2,13,-1
 842 563 l 2,14,15
 841 562 841 562 840 562 c 1,16,17
 848 524 848 524 854 504 c 0,18,19
 876 444 876 444 913 405 c 0,20,21
 934 386 934 386 972 369 c 0,22,23
 973 369 973 369 973 369 c 1,24,25
 990 362 990 362 1024 351 c 1,26,-1
 995 263 l 1,27,28
 960 274 960 274 940 282 c 1,29,-1
 938 282 l 1,30,-1
 936 283 l 2,31,32
 881 309 881 309 849 338 c 1,33,-1
 849 339 l 1,34,-1
 848 339 l 1,35,36
 795 393 795 393 767 474 c 0,37,38
 759 495 759 495 753 522 c 1,39,40
 718 509 718 509 690 503 c 1,41,-1
 689 503 l 2,42,43
 670 500 670 500 647 498 c 1,44,45
 653 468 653 468 661 447 c 0,46,47
 675 410 675 410 709 376 c 0,48,49
 729 358 729 358 775 330 c 1,50,-1
 773 331 l 1,51,52
 790 322 790 322 808 310 c 0,53,54
 813 307 813 307 814 306 c 2,55,-1
 766 226 l 1,56,57
 761 229 761 229 753 235 c 0,58,59
 739 244 739 244 729 249 c 2,60,-1
 728 250 l 1,61,-1
 727 250 l 1,62,63
 671 284 671 284 645 308 c 2,64,-1
 644 309 l 2,65,66
 595 359 595 359 574 415 c 0,67,68
 561 450 561 450 553 502 c 1,69,70
 543 504 543 504 538 504 c 1,71,72
 516 437 516 437 493 399 c 0,73,74
 449 330 449 330 384 300 c 0,75,76
 348 283 348 283 274 270 c 1,77,-1
 258 362 l 1,78,79
 322 373 322 373 344 384 c 1,80,-1
 345 384 l 1,81,-1
 346 385 l 1,82,83
 386 404 386 404 414 448 c 0,84,85
 431 476 431 476 450 532 c 1,86,87
 408 550 408 550 348 587 c 1,88,89
 319 530 319 530 301 499 c 0,90,91
 247 409 247 409 187 374 c 0,92,93
 132 343 132 343 15 328 c 1,94,-1
 14 328 l 1,95,-1
 13 328 l 1,96,-1
 12 328 l 1,97,-1
 0 420 l 1,98,99
 102 433 102 433 141 455 c 0,100,101
 181 479 181 479 220 546 c 0,102,103
 234 570 234 570 261 623 c 0,104,105
 280 660 280 660 289 675 c 0,106,107
 318 730 318 730 347 756 c 2,108,-1
 348 757 l 1,109,110
 396 796 396 796 461 809 c 1,111,-1
 461 810 l 1,112,113
 519 821 519 821 591 820 c 0,0,1
551 726 m 0,114,115
 509 724 509 724 480 718 c 0,116,117
 437 709 437 709 408 686 c 0,118,119
 400 678 400 678 393 669 c 1,120,121
 477 618 477 618 521 604 c 0,122,123
 596 581 596 581 671 594 c 0,124,125
 702 601 702 601 736 615 c 0,126,127
 736 617 736 617 735 621 c 0,128,129
 734 628 734 628 734 631 c 0,130,131
 719 688 719 688 700 707 c 0,132,133
 679 723 679 723 627 725 c 2,134,-1
 626 725 l 1,135,-1
 625 725 l 2,136,137
 590 728 590 728 551 726 c 0,114,115
EndSplineSet
EndChar

StartChar: germandbls
Encoding: 223 223 64
Width: 1024
GlyphClass: 2
Flags: W
LayerCount: 2
Fore
SplineSet
352 760 m 1,0,-1
 678 760 l 1,1,-1
 678 321 l 1,2,-1
 1024 321 l 1,3,-1
 1024 380 l 1,4,-1
 738 380 l 1,5,-1
 738 819 l 1,6,-1
 292 819 l 1,7,-1
 292 380 l 1,8,-1
 0 380 l 1,9,-1
 0 321 l 1,10,-1
 352 321 l 1,11,-1
 352 760 l 1,0,-1
EndSplineSet
EndChar
